solid cylinder
facet normal -4.6394670327742915e-09 0.995184600353241 -0.0980178490281105
 outer loop
  vertex -0.10000000149011612 0.05000000074505806 4.371139006309477e-09
  vertex 0.10000000149011612 0.05000000074505806 -4.371139006309477e-09
  vertex 0.10000000149011612 0.049039263278245926 -0.00975452084094286
 endloop
endfacet
facet normal -4.639467476863501e-09 0.9951847195625305 -0.09801691025495529
 outer loop
  vertex -0.10000000149011612 0.05000000074505806 4.371139006309477e-09
  vertex 0.10000000149011612 0.049039263278245926 -0.00975452084094286
  vertex -0.10000000149011612 0.049039263278245926 -0.009754511527717113
 endloop
endfacet
facet normal -1.4846293083792261e-08 0.956940233707428 -0.2902851700782776
 outer loop
  vertex -0.10000000149011612 0.049039263278245926 -0.009754511527717113
  vertex 0.10000000149011612 0.049039263278245926 -0.00975452084094286
  vertex 0.10000000149011612 0.04619397595524788 -0.019134176895022392
 endloop
endfacet
facet normal -1.1134721589201035e-08 0.9569404721260071 -0.29028424620628357
 outer loop
  vertex -0.10000000149011612 0.049039263278245926 -0.009754511527717113
  vertex 0.10000000149011612 0.04619397595524788 -0.019134176895022392
  vertex -0.10000000149011612 0.04619397595524788 -0.019134169444441795
 endloop
endfacet
facet normal -1.484629663650594e-08 0.8819211721420288 -0.4713967740535736
 outer loop
  vertex -0.10000000149011612 0.04619397595524788 -0.019134169444441795
  vertex 0.10000000149011612 0.04619397595524788 -0.019134176895022392
  vertex 0.10000000149011612 0.041573479771614075 -0.027778515592217445
 endloop
endfacet
facet normal -2.226944495475891e-08 0.8819211721420288 -0.4713967740535736
 outer loop
  vertex -0.10000000149011612 0.04619397595524788 -0.019134169444441795
  vertex 0.10000000149011612 0.041573479771614075 -0.027778515592217445
  vertex -0.10000000149011612 0.041573479771614075 -0.02777850814163685
 endloop
endfacet
facet normal -1.484629841286278e-08 0.7730107307434082 -0.634393036365509
 outer loop
  vertex -0.10000000149011612 0.041573479771614075 -0.02777850814163685
  vertex 0.10000000149011612 0.041573479771614075 -0.027778515592217445
  vertex 0.10000000149011612 0.0353553406894207 -0.035355344414711
 endloop
endfacet
facet normal -2.9692586167584523e-08 0.7730104327201843 -0.6343932747840881
 outer loop
  vertex -0.10000000149011612 0.041573479771614075 -0.02777850814163685
  vertex 0.10000000149011612 0.0353553406894207 -0.035355344414711
  vertex -0.10000000149011612 0.0353553406894207 -0.0353553369641304
 endloop
endfacet
facet normal 0.0 0.6343929767608643 -0.7730107307434082
 outer loop
  vertex -0.10000000149011612 0.0353553406894207 -0.0353553369641304
  vertex 0.10000000149011612 0.0353553406894207 -0.035355344414711
  vertex 0.10000000149011612 0.027778511866927147 -0.04157348349690437
 endloop
endfacet
facet normal -5.9385200756878476e-08 0.6343932151794434 -0.7730104923248291
 outer loop
  vertex -0.10000000149011612 0.0353553406894207 -0.0353553369641304
  vertex 0.10000000149011612 0.027778511866927147 -0.04157348349690437
  vertex -0.10000000149011612 0.027778511866927147 -0.041573476046323776
 endloop
endfacet
facet normal -5.938520786230583e-08 0.47139692306518555 -0.8819211721420288
 outer loop
  vertex -0.10000000149011612 0.027778511866927147 -0.041573476046323776
  vertex 0.10000000149011612 0.027778511866927147 -0.04157348349690437
  vertex 0.10000000149011612 0.019134171307086945 -0.04619397968053818
 endloop
endfacet
facet normal 0.0 0.4713965356349945 -0.8819214105606079
 outer loop
  vertex -0.10000000149011612 0.027778511866927147 -0.041573476046323776
  vertex 0.10000000149011612 0.019134171307086945 -0.04619397968053818
  vertex -0.10000000149011612 0.019134171307086945 -0.04619397222995758
 endloop
endfacet
facet normal -2.9692600378439238e-08 0.29028475284576416 -0.956940233707428
 outer loop
  vertex -0.10000000149011612 0.019134171307086945 -0.04619397222995758
  vertex 0.10000000149011612 0.019134171307086945 -0.04619397968053818
  vertex 0.10000000149011612 0.009754518046975136 -0.049039267003536224
 endloop
endfacet
facet normal -2.969259682572556e-08 0.2902847230434418 -0.956940233707428
 outer loop
  vertex -0.10000000149011612 0.019134171307086945 -0.04619397222995758
  vertex 0.10000000149011612 0.009754518046975136 -0.049039267003536224
  vertex -0.10000000149011612 0.009754518046975136 -0.04903925955295563
 endloop
endfacet
facet normal -2.9692579062157165e-08 0.09801724553108215 -0.9951847195625305
 outer loop
  vertex -0.10000000149011612 0.009754518046975136 -0.04903925955295563
  vertex 0.10000000149011612 0.009754518046975136 -0.049039267003536224
  vertex 0.10000000149011612 -2.1855695031547384e-09 -0.05000000447034836
 endloop
endfacet
facet normal -2.9692579062157165e-08 0.09801724553108215 -0.9951847195625305
 outer loop
  vertex -0.10000000149011612 0.009754518046975136 -0.04903925955295563
  vertex 0.10000000149011612 -2.1855695031547384e-09 -0.05000000447034836
  vertex -0.10000000149011612 -2.1855695031547384e-09 -0.04999999701976776
 endloop
endfacet
facet normal -2.9692600378439238e-08 -0.09801731258630753 -0.9951847195625305
 outer loop
  vertex -0.10000000149011612 -2.1855695031547384e-09 -0.04999999701976776
  vertex 0.10000000149011612 -2.1855695031547384e-09 -0.05000000447034836
  vertex 0.10000000149011612 -0.009754516184329987 -0.049039267003536224
 endloop
endfacet
facet normal -5.9385200756878476e-08 -0.09801731258630753 -0.9951847195625305
 outer loop
  vertex -0.10000000149011612 -2.1855695031547384e-09 -0.04999999701976776
  vertex 0.10000000149011612 -0.009754516184329987 -0.049039267003536224
  vertex -0.10000000149011612 -0.009754516184329987 -0.04903925955295563
 endloop
endfacet
facet normal 0.0 -0.2902843654155731 -0.9569403529167175
 outer loop
  vertex -0.10000000149011612 -0.009754516184329987 -0.04903925955295563
  vertex 0.10000000149011612 -0.009754516184329987 -0.049039267003536224
  vertex 0.10000000149011612 -0.019134169444441795 -0.046193983405828476
 endloop
endfacet
facet normal -5.938519365145112e-08 -0.29028433561325073 -0.9569403529167175
 outer loop
  vertex -0.10000000149011612 -0.009754516184329987 -0.04903925955295563
  vertex 0.10000000149011612 -0.019134169444441795 -0.046193983405828476
  vertex -0.10000000149011612 -0.019134169444441795 -0.04619397595524788
 endloop
endfacet
facet normal 0.0 -0.471396803855896 -0.8819211721420288
 outer loop
  vertex -0.10000000149011612 -0.019134169444441795 -0.04619397595524788
  vertex 0.10000000149011612 -0.019134169444441795 -0.046193983405828476
  vertex 0.10000000149011612 -0.027778510004281998 -0.04157348722219467
 endloop
endfacet
facet normal -5.93851794405964e-08 -0.47139671444892883 -0.8819212317466736
 outer loop
  vertex -0.10000000149011612 -0.019134169444441795 -0.04619397595524788
  vertex 0.10000000149011612 -0.027778510004281998 -0.04157348722219467
  vertex -0.10000000149011612 -0.027778510004281998 -0.041573479771614075
 endloop
endfacet
facet normal -2.9692582614870844e-08 -0.6343932151794434 -0.7730104923248291
 outer loop
  vertex -0.10000000149011612 -0.027778510004281998 -0.041573479771614075
  vertex 0.10000000149011612 -0.027778510004281998 -0.04157348722219467
  vertex 0.10000000149011612 -0.0353553406894207 -0.035355344414711
 endloop
endfacet
facet normal -2.9692582614870844e-08 -0.6343932151794434 -0.7730104923248291
 outer loop
  vertex -0.10000000149011612 -0.027778510004281998 -0.041573479771614075
  vertex 0.10000000149011612 -0.0353553406894207 -0.035355344414711
  vertex -0.10000000149011612 -0.0353553406894207 -0.0353553369641304
 endloop
endfacet
facet normal -1.4846291307435422e-08 -0.7730104923248291 -0.6343932151794434
 outer loop
  vertex -0.10000000149011612 -0.0353553406894207 -0.0353553369641304
  vertex 0.10000000149011612 -0.0353553406894207 -0.035355344414711
  vertex 0.10000000149011612 -0.04157348349690437 -0.027778513729572296
 endloop
endfacet
facet normal -2.9692571956729807e-08 -0.77301025390625 -0.6343934535980225
 outer loop
  vertex -0.10000000149011612 -0.0353553406894207 -0.0353553369641304
  vertex 0.10000000149011612 -0.04157348349690437 -0.027778513729572296
  vertex -0.10000000149011612 -0.04157348349690437 -0.0277785062789917
 endloop
endfacet
facet normal -1.4846309071003816e-08 -0.8819215297698975 -0.47139620780944824
 outer loop
  vertex -0.10000000149011612 -0.04157348349690437 -0.0277785062789917
  vertex 0.10000000149011612 -0.04157348349690437 -0.027778513729572296
  vertex 0.10000000149011612 -0.04619397595524788 -0.01913417875766754
 endloop
endfacet
facet normal -2.2269453836543107e-08 -0.881921112537384 -0.47139692306518555
 outer loop
  vertex -0.10000000149011612 -0.04157348349690437 -0.0277785062789917
  vertex 0.10000000149011612 -0.04619397595524788 -0.01913417875766754
  vertex -0.10000000149011612 -0.04619397595524788 -0.019134171307086945
 endloop
endfacet
facet normal -1.1134717148308937e-08 -0.956940233707428 -0.2902851104736328
 outer loop
  vertex -0.10000000149011612 -0.04619397595524788 -0.019134171307086945
  vertex 0.10000000149011612 -0.04619397595524788 -0.01913417875766754
  vertex 0.10000000149011612 -0.049039267003536224 -0.009754519909620285
 endloop
endfacet
facet normal -1.1134714483773678e-08 -0.956940233707428 -0.29028502106666565
 outer loop
  vertex -0.10000000149011612 -0.04619397595524788 -0.019134171307086945
  vertex 0.10000000149011612 -0.049039267003536224 -0.009754519909620285
  vertex -0.10000000149011612 -0.049039267003536224 -0.009754510596394539
 endloop
endfacet
facet normal -4.639465700506662e-09 -0.9951846599578857 -0.09801686555147171
 outer loop
  vertex -0.10000000149011612 -0.049039267003536224 -0.009754510596394539
  vertex 0.10000000149011612 -0.049039267003536224 -0.009754519909620285
  vertex 0.10000000149011612 -0.05000000074505806 0.0
 endloop
endfacet
facet normal -3.7115728268588555e-09 -0.9951846599578857 -0.0980168804526329
 outer loop
  vertex -0.10000000149011612 -0.049039267003536224 -0.009754510596394539
  vertex 0.10000000149011612 -0.05000000074505806 0.0
  vertex -0.10000000149011612 -0.05000000074505806 8.742278012618954e-09
 endloop
endfacet
facet normal 4.175524370708672e-09 -0.9951847195625305 0.09801699221134186
 outer loop
  vertex -0.10000000149011612 -0.05000000074505806 8.742278012618954e-09
  vertex 0.10000000149011612 -0.05000000074505806 0.0
  vertex 0.10000000149011612 -0.049039267003536224 0.009754507802426815
 endloop
endfacet
facet normal 4.63947102957718e-09 -0.9951847195625305 0.09801698476076126
 outer loop
  vertex -0.10000000149011612 -0.05000000074505806 8.742278012618954e-09
  vertex 0.10000000149011612 -0.049039267003536224 0.009754507802426815
  vertex -0.10000000149011612 -0.049039267003536224 0.009754517115652561
 endloop
endfacet
facet normal 1.1134716260130517e-08 -0.956940233707428 0.2902850806713104
 outer loop
  vertex -0.10000000149011612 -0.049039267003536224 0.009754517115652561
  vertex 0.10000000149011612 -0.049039267003536224 0.009754507802426815
  vertex 0.10000000149011612 -0.04619397595524788 0.019134167581796646
 endloop
endfacet
facet normal 1.1134717148308937e-08 -0.9569401741027832 0.2902851104736328
 outer loop
  vertex -0.10000000149011612 -0.049039267003536224 0.009754517115652561
  vertex 0.10000000149011612 -0.04619397595524788 0.019134167581796646
  vertex -0.10000000149011612 -0.04619397595524788 0.019134175032377243
 endloop
endfacet
facet normal 2.2269434296617874e-08 -0.8819213509559631 0.4713965356349945
 outer loop
  vertex -0.10000000149011612 -0.04619397595524788 0.019134175032377243
  vertex 0.10000000149011612 -0.04619397595524788 0.019134167581796646
  vertex 0.10000000149011612 -0.041573476046323776 0.027778511866927147
 endloop
endfacet
facet normal 1.4846282425651225e-08 -0.8819208741188049 0.4713972508907318
 outer loop
  vertex -0.10000000149011612 -0.04619397595524788 0.019134175032377243
  vertex 0.10000000149011612 -0.041573476046323776 0.027778511866927147
  vertex -0.10000000149011612 -0.041573476046323776 0.027778519317507744
 endloop
endfacet
facet normal 1.4846310847360655e-08 -0.7730106115341187 0.6343930959701538
 outer loop
  vertex -0.10000000149011612 -0.041573476046323776 0.027778519317507744
  vertex 0.10000000149011612 -0.041573476046323776 0.027778511866927147
  vertex 0.10000000149011612 -0.0353553406894207 0.0353553332388401
 endloop
endfacet
facet normal 2.9692614589293953e-08 -0.7730103731155396 0.6343933939933777
 outer loop
  vertex -0.10000000149011612 -0.041573476046323776 0.027778519317507744
  vertex 0.10000000149011612 -0.0353553406894207 0.0353553332388401
  vertex -0.10000000149011612 -0.0353553406894207 0.0353553406894207
 endloop
endfacet
facet normal 0.0 -0.6343938708305359 0.7730098962783813
 outer loop
  vertex -0.10000000149011612 -0.0353553406894207 0.0353553406894207
  vertex 0.10000000149011612 -0.0353553406894207 0.0353553332388401
  vertex 0.10000000149011612 -0.027778521180152893 0.04157347232103348
 endloop
endfacet
facet normal 5.9385200756878476e-08 -0.6343932151794434 0.7730104923248291
 outer loop
  vertex -0.10000000149011612 -0.0353553406894207 0.0353553406894207
  vertex 0.10000000149011612 -0.027778521180152893 0.04157347232103348
  vertex -0.10000000149011612 -0.027778521180152893 0.041573479771614075
 endloop
endfacet
facet normal 2.9692586167584523e-08 -0.4713970422744751 0.881921112537384
 outer loop
  vertex -0.10000000149011612 -0.027778521180152893 0.041573479771614075
  vertex 0.10000000149011612 -0.027778521180152893 0.04157347232103348
  vertex 0.10000000149011612 -0.01913417875766754 0.04619397222995758
 endloop
endfacet
facet normal 2.9692579062157165e-08 -0.47139692306518555 0.8819211721420288
 outer loop
  vertex -0.10000000149011612 -0.027778521180152893 0.041573479771614075
  vertex 0.10000000149011612 -0.01913417875766754 0.04619397222995758
  vertex -0.10000000149011612 -0.01913417875766754 0.04619397968053818
 endloop
endfacet
facet normal 5.938516522974169e-08 -0.29028457403182983 0.9569404125213623
 outer loop
  vertex -0.10000000149011612 -0.01913417875766754 0.04619397968053818
  vertex 0.10000000149011612 -0.01913417875766754 0.04619397222995758
  vertex 0.10000000149011612 -0.00975451897829771 0.04903925955295563
 endloop
endfacet
facet normal 2.9692575509443486e-08 -0.29028451442718506 0.9569404125213623
 outer loop
  vertex -0.10000000149011612 -0.01913417875766754 0.04619397968053818
  vertex 0.10000000149011612 -0.00975451897829771 0.04903925955295563
  vertex -0.10000000149011612 -0.00975451897829771 0.049039267003536224
 endloop
endfacet
facet normal 2.9692582614870844e-08 -0.09801725298166275 0.9951847195625305
 outer loop
  vertex -0.10000000149011612 -0.00975451897829771 0.049039267003536224
  vertex 0.10000000149011612 -0.00975451897829771 0.04903925955295563
  vertex 0.10000000149011612 5.962440541296132e-10 0.04999999701976776
 endloop
endfacet
facet normal 2.9692582614870844e-08 -0.09801725298166275 0.9951847195625305
 outer loop
  vertex -0.10000000149011612 -0.00975451897829771 0.049039267003536224
  vertex 0.10000000149011612 5.962440541296132e-10 0.04999999701976776
  vertex -0.10000000149011612 5.962440541296132e-10 0.05000000447034836
 endloop
endfacet
facet normal 2.9692579062157165e-08 0.09801724553108215 0.9951847195625305
 outer loop
  vertex -0.10000000149011612 5.962440541296132e-10 0.05000000447034836
  vertex 0.10000000149011612 5.962440541296132e-10 0.04999999701976776
  vertex 0.10000000149011612 0.00975452084094286 0.04903925955295563
 endloop
endfacet
facet normal 2.9692582614870844e-08 0.09801725298166275 0.9951847195625305
 outer loop
  vertex -0.10000000149011612 5.962440541296132e-10 0.05000000447034836
  vertex 0.10000000149011612 0.00975452084094286 0.04903925955295563
  vertex -0.10000000149011612 0.00975452084094286 0.049039267003536224
 endloop
endfacet
facet normal 0.0 0.2902849018573761 0.9569402933120728
 outer loop
  vertex -0.10000000149011612 0.00975452084094286 0.049039267003536224
  vertex 0.10000000149011612 0.00975452084094286 0.04903925955295563
  vertex 0.10000000149011612 0.01913418062031269 0.04619396850466728
 endloop
endfacet
facet normal 8.90777371864715e-08 0.2902849316596985 0.9569402933120728
 outer loop
  vertex -0.10000000149011612 0.00975452084094286 0.049039267003536224
  vertex 0.10000000149011612 0.01913418062031269 0.04619396850466728
  vertex -0.10000000149011612 0.01913418062031269 0.04619397595524788
 endloop
endfacet
facet normal 2.9692643011003383e-08 0.47139641642570496 0.8819214105606079
 outer loop
  vertex -0.10000000149011612 0.01913418062031269 0.04619397595524788
  vertex 0.10000000149011612 0.01913418062031269 0.04619396850466728
  vertex 0.10000000149011612 0.02777850441634655 0.04157348349690437
 endloop
endfacet
facet normal 2.96926572218581e-08 0.47139665484428406 0.8819213509559631
 outer loop
  vertex -0.10000000149011612 0.01913418062031269 0.04619397595524788
  vertex 0.10000000149011612 0.02777850441634655 0.04157348349690437
  vertex -0.10000000149011612 0.02777850441634655 0.04157349094748497
 endloop
endfacet
facet normal 0.0 0.6343929767608643 0.7730107307434082
 outer loop
  vertex -0.10000000149011612 0.02777850441634655 0.04157349094748497
  vertex 0.10000000149011612 0.02777850441634655 0.04157348349690437
  vertex 0.10000000149011612 0.0353553369641304 0.0353553406894207
 endloop
endfacet
facet normal 2.9692582614870844e-08 0.6343932151794434 0.7730104923248291
 outer loop
  vertex -0.10000000149011612 0.02777850441634655 0.04157349094748497
  vertex 0.10000000149011612 0.0353553369641304 0.0353553406894207
  vertex -0.10000000149011612 0.0353553369641304 0.0353553481400013
 endloop
endfacet
facet normal 1.4846293083792261e-08 0.7730104327201843 0.6343932747840881
 outer loop
  vertex -0.10000000149011612 0.0353553369641304 0.0353553481400013
  vertex 0.10000000149011612 0.0353553369641304 0.0353553406894207
  vertex 0.10000000149011612 0.041573479771614075 0.027778511866927147
 endloop
endfacet
facet normal 2.9692586167584523e-08 0.7730104327201843 0.6343932747840881
 outer loop
  vertex -0.10000000149011612 0.0353553369641304 0.0353553481400013
  vertex 0.10000000149011612 0.041573479771614075 0.027778511866927147
  vertex -0.10000000149011612 0.041573479771614075 0.027778519317507744
 endloop
endfacet
facet normal 2.2269434296617874e-08 0.8819213509559631 0.4713965356349945
 outer loop
  vertex -0.10000000149011612 0.041573479771614075 0.027778519317507744
  vertex 0.10000000149011612 0.041573479771614075 0.027778511866927147
  vertex 0.10000000149011612 0.04619397968053818 0.019134167581796646
 endloop
endfacet
facet normal 1.4846282425651225e-08 0.8819208741188049 0.4713972508907318
 outer loop
  vertex -0.10000000149011612 0.041573479771614075 0.027778519317507744
  vertex 0.10000000149011612 0.04619397968053818 0.019134167581796646
  vertex -0.10000000149011612 0.04619397968053818 0.019134175032377243
 endloop
endfacet
facet normal 1.0 1.24222615340841e-05 0.0
 outer loop
  vertex 0.10000000149011612 0.04619397595524788 -0.019134176895022392
  vertex 0.10000000149011612 0.049039263278245926 -0.00975452084094286
  vertex 0.10000000149011612 0.05000000074505806 -4.371139006309477e-09
 endloop
endfacet
facet normal 1.0 -1.2422254258126486e-05 0.0
 outer loop
  vertex 0.10000000149011612 0.05000000074505806 -4.371139006309477e-09
  vertex 0.10000000149011612 0.049039267003536224 0.00975450687110424
  vertex 0.10000000149011612 0.04619397968053818 0.019134167581796646
 endloop
endfacet
facet normal 0.9999999403953552 0.0 0.0
 outer loop
  vertex 0.10000000149011612 0.04619397968053818 0.019134167581796646
  vertex 0.10000000149011612 0.041573479771614075 0.027778511866927147
  vertex 0.10000000149011612 0.0353553369641304 0.0353553406894207
 endloop
endfacet
facet normal 1.0 6.211103027453646e-06 0.0
 outer loop
  vertex 0.10000000149011612 0.0353553369641304 0.0353553406894207
  vertex 0.10000000149011612 0.02777850441634655 0.04157348349690437
  vertex 0.10000000149011612 0.01913418062031269 0.04619396850466728
 endloop
endfacet
facet normal 1.0 7.763975418129121e-07 0.0
 outer loop
  vertex 0.10000000149011612 0.01913418062031269 0.04619396850466728
  vertex 0.10000000149011612 0.00975452084094286 0.04903925955295563
  vertex 0.10000000149011612 5.962440541296132e-10 0.04999999701976776
 endloop
endfacet
facet normal 1.0 0.0 0.0
 outer loop
  vertex 0.10000000149011612 5.962440541296132e-10 0.04999999701976776
  vertex 0.10000000149011612 -0.00975451897829771 0.04903925955295563
  vertex 0.10000000149011612 -0.01913417875766754 0.04619397222995758
 endloop
endfacet
facet normal 0.9999999403953552 0.0 0.0
 outer loop
  vertex 0.10000000149011612 -0.01913417875766754 0.04619397222995758
  vertex 0.10000000149011612 -0.027778521180152893 0.04157347232103348
  vertex 0.10000000149011612 -0.0353553406894207 0.0353553332388401
 endloop
endfacet
facet normal 1.0 6.211136678757612e-06 0.0
 outer loop
  vertex 0.10000000149011612 -0.0353553406894207 0.0353553332388401
  vertex 0.10000000149011612 -0.041573476046323776 0.027778511866927147
  vertex 0.10000000149011612 -0.04619397595524788 0.019134167581796646
 endloop
endfacet
facet normal 1.0 0.0 0.0
 outer loop
  vertex 0.10000000149011612 -0.04619397595524788 0.019134167581796646
  vertex 0.10000000149011612 -0.049039267003536224 0.009754507802426815
  vertex 0.10000000149011612 -0.05000000074505806 0.0
 endloop
endfacet
facet normal 1.0 -6.2111053011904005e-06 0.0
 outer loop
  vertex 0.10000000149011612 -0.05000000074505806 0.0
  vertex 0.10000000149011612 -0.049039267003536224 -0.009754519909620285
  vertex 0.10000000149011612 -0.04619397595524788 -0.01913417875766754
 endloop
endfacet
facet normal 1.0 6.211122126842383e-06 0.0
 outer loop
  vertex 0.10000000149011612 -0.04619397595524788 -0.01913417875766754
  vertex 0.10000000149011612 -0.04157348349690437 -0.027778513729572296
  vertex 0.10000000149011612 -0.0353553406894207 -0.035355344414711
 endloop
endfacet
facet normal 1.0 0.0 0.0
 outer loop
  vertex 0.10000000149011612 -0.0353553406894207 -0.035355344414711
  vertex 0.10000000149011612 -0.027778510004281998 -0.04157348722219467
  vertex 0.10000000149011612 -0.019134169444441795 -0.046193983405828476
 endloop
endfacet
facet normal 1.0 -7.763902658552979e-07 0.0
 outer loop
  vertex 0.10000000149011612 -0.019134169444441795 -0.046193983405828476
  vertex 0.10000000149011612 -0.009754516184329987 -0.049039267003536224
  vertex 0.10000000149011612 -2.1855695031547384e-09 -0.05000000447034836
 endloop
endfacet
facet normal 1.0 0.0 0.0
 outer loop
  vertex 0.10000000149011612 -2.1855695031547384e-09 -0.05000000447034836
  vertex 0.10000000149011612 0.009754518046975136 -0.049039267003536224
  vertex 0.10000000149011612 0.019134171307086945 -0.04619397968053818
 endloop
endfacet
facet normal 1.0 0.0 0.0
 outer loop
  vertex 0.10000000149011612 0.019134171307086945 -0.04619397968053818
  vertex 0.10000000149011612 0.027778511866927147 -0.04157348349690437
  vertex 0.10000000149011612 0.0353553406894207 -0.035355344414711
 endloop
endfacet
facet normal 1.0 0.0 0.0
 outer loop
  vertex 0.10000000149011612 0.0353553406894207 -0.035355344414711
  vertex 0.10000000149011612 0.041573479771614075 -0.027778515592217445
  vertex 0.10000000149011612 0.04619397595524788 -0.019134176895022392
 endloop
endfacet
facet normal 0.9999999403953552 -3.1971205771696987e-06 0.0
 outer loop
  vertex 0.10000000149011612 0.04619397595524788 -0.019134176895022392
  vertex 0.10000000149011612 0.05000000074505806 -4.371139006309477e-09
  vertex 0.10000000149011612 0.04619397968053818 0.019134167581796646
 endloop
endfacet
facet normal 1.0 -1.5985600612111739e-06 0.0
 outer loop
  vertex 0.10000000149011612 0.04619397968053818 0.019134167581796646
  vertex 0.10000000149011612 0.0353553369641304 0.0353553406894207
  vertex 0.10000000149011612 0.01913418062031269 0.04619396850466728
 endloop
endfacet
facet normal 1.0 0.0 0.0
 outer loop
  vertex 0.10000000149011612 0.01913418062031269 0.04619396850466728
  vertex 0.10000000149011612 5.962440541296132e-10 0.04999999701976776
  vertex 0.10000000149011612 -0.01913417875766754 0.04619397222995758
 endloop
endfacet
facet normal 1.0 -1.5985613117663888e-06 0.0
 outer loop
  vertex 0.10000000149011612 -0.01913417875766754 0.04619397222995758
  vertex 0.10000000149011612 -0.0353553406894207 0.0353553332388401
  vertex 0.10000000149011612 -0.04619397595524788 0.019134167581796646
 endloop
endfacet
facet normal 1.0 0.0 0.0
 outer loop
  vertex 0.10000000149011612 -0.04619397595524788 0.019134167581796646
  vertex 0.10000000149011612 -0.05000000074505806 0.0
  vertex 0.10000000149011612 -0.04619397595524788 -0.01913417875766754
 endloop
endfacet
facet normal 1.0 -1.5985600612111739e-06 0.0
 outer loop
  vertex 0.10000000149011612 -0.04619397595524788 -0.01913417875766754
  vertex 0.10000000149011612 -0.0353553406894207 -0.035355344414711
  vertex 0.10000000149011612 -0.019134169444441795 -0.046193983405828476
 endloop
endfacet
facet normal 1.0 0.0 0.0
 outer loop
  vertex 0.10000000149011612 -0.019134169444441795 -0.046193983405828476
  vertex 0.10000000149011612 -2.1855695031547384e-09 -0.05000000447034836
  vertex 0.10000000149011612 0.019134171307086945 -0.04619397968053818
 endloop
endfacet
facet normal 1.0 0.0 0.0
 outer loop
  vertex 0.10000000149011612 0.019134171307086945 -0.04619397968053818
  vertex 0.10000000149011612 0.0353553406894207 -0.035355344414711
  vertex 0.10000000149011612 0.04619397595524788 -0.019134176895022392
 endloop
endfacet
facet normal 1.0 0.0 0.0
 outer loop
  vertex 0.10000000149011612 0.04619397595524788 -0.019134176895022392
  vertex 0.10000000149011612 0.04619397968053818 0.019134167581796646
  vertex 0.10000000149011612 0.01913418062031269 0.04619396850466728
 endloop
endfacet
facet normal 1.0 0.0 0.0
 outer loop
  vertex 0.10000000149011612 0.01913418062031269 0.04619396850466728
  vertex 0.10000000149011612 -0.01913417875766754 0.04619397222995758
  vertex 0.10000000149011612 -0.04619397595524788 0.019134167581796646
 endloop
endfacet
facet normal 1.0 0.0 0.0
 outer loop
  vertex 0.10000000149011612 -0.04619397595524788 0.019134167581796646
  vertex 0.10000000149011612 -0.04619397595524788 -0.01913417875766754
  vertex 0.10000000149011612 -0.019134169444441795 -0.046193983405828476
 endloop
endfacet
facet normal 1.0 0.0 0.0
 outer loop
  vertex 0.10000000149011612 -0.019134169444441795 -0.046193983405828476
  vertex 0.10000000149011612 0.019134171307086945 -0.04619397968053818
  vertex 0.10000000149011612 0.04619397595524788 -0.019134176895022392
 endloop
endfacet
facet normal 1.0 0.0 0.0
 outer loop
  vertex 0.10000000149011612 0.04619397595524788 -0.019134176895022392
  vertex 0.10000000149011612 0.01913418062031269 0.04619396850466728
  vertex 0.10000000149011612 -0.04619397595524788 0.019134167581796646
 endloop
endfacet
facet normal 1.0 9.313225746154785e-08 0.0
 outer loop
  vertex 0.10000000149011612 -0.04619397595524788 0.019134167581796646
  vertex 0.10000000149011612 -0.019134169444441795 -0.046193983405828476
  vertex 0.10000000149011612 0.04619397595524788 -0.019134176895022392
 endloop
endfacet
facet normal 1.1134717148308937e-08 0.9569404721260071 0.2902841567993164
 outer loop
  vertex -0.10000000149011612 0.04619397968053818 0.019134175032377243
  vertex 0.10000000149011612 0.04619397968053818 0.019134167581796646
  vertex 0.10000000149011612 0.049039267003536224 0.00975450687110424
 endloop
endfacet
facet normal 1.1134717148308937e-08 0.956940233707428 0.2902851104736328
 outer loop
  vertex -0.10000000149011612 0.04619397968053818 0.019134175032377243
  vertex 0.10000000149011612 0.049039267003536224 0.00975450687110424
  vertex -0.10000000149011612 0.049039267003536224 0.009754516184329987
 endloop
endfacet
facet normal 4.1755230384410424e-09 0.9951847195625305 0.09801696240901947
 outer loop
  vertex -0.10000000149011612 0.049039267003536224 0.009754516184329987
  vertex 0.10000000149011612 0.049039267003536224 0.00975450687110424
  vertex 0.10000000149011612 0.05000000074505806 -4.371139006309477e-09
 endloop
endfacet
facet normal 4.6394701413987605e-09 0.9951847195625305 0.09801696240901947
 outer loop
  vertex -0.10000000149011612 0.049039267003536224 0.009754516184329987
  vertex 0.10000000149011612 0.05000000074505806 -4.371139006309477e-09
  vertex -0.10000000149011612 0.05000000074505806 4.371139006309477e-09
 endloop
endfacet
facet normal -1.0 1.24222615340841e-05 0.0
 outer loop
  vertex -0.10000000149011612 0.049039267003536224 0.009754516184329987
  vertex -0.10000000149011612 0.05000000074505806 4.371139006309477e-09
  vertex -0.10000000149011612 0.049039263278245926 -0.009754511527717113
 endloop
endfacet
facet normal -1.0 6.211122126842383e-06 0.0
 outer loop
  vertex -0.10000000149011612 0.049039263278245926 -0.009754511527717113
  vertex -0.10000000149011612 0.04619397595524788 -0.019134169444441795
  vertex -0.10000000149011612 0.041573479771614075 -0.02777850814163685
 endloop
endfacet
facet normal -1.0 -6.211122126842383e-06 0.0
 outer loop
  vertex -0.10000000149011612 0.041573479771614075 -0.02777850814163685
  vertex -0.10000000149011612 0.0353553406894207 -0.0353553369641304
  vertex -0.10000000149011612 0.027778511866927147 -0.041573476046323776
 endloop
endfacet
facet normal -1.0 3.1055708404892357e-06 0.0
 outer loop
  vertex -0.10000000149011612 0.027778511866927147 -0.041573476046323776
  vertex -0.10000000149011612 0.019134171307086945 -0.04619397222995758
  vertex -0.10000000149011612 0.009754518046975136 -0.04903925955295563
 endloop
endfacet
facet normal -1.0 0.0 0.0
 outer loop
  vertex -0.10000000149011612 0.009754518046975136 -0.04903925955295563
  vertex -0.10000000149011612 -2.1855695031547384e-09 -0.04999999701976776
  vertex -0.10000000149011612 -0.009754516184329987 -0.04903925955295563
 endloop
endfacet
facet normal -1.0 0.0 0.0
 outer loop
  vertex -0.10000000149011612 -0.009754516184329987 -0.04903925955295563
  vertex -0.10000000149011612 -0.019134169444441795 -0.04619397595524788
  vertex -0.10000000149011612 -0.027778510004281998 -0.041573479771614075
 endloop
endfacet
facet normal -1.0 0.0 0.0
 outer loop
  vertex -0.10000000149011612 -0.027778510004281998 -0.041573479771614075
  vertex -0.10000000149011612 -0.0353553406894207 -0.0353553369641304
  vertex -0.10000000149011612 -0.04157348349690437 -0.0277785062789917
 endloop
endfacet
facet normal -0.9999999403953552 0.0 0.0
 outer loop
  vertex -0.10000000149011612 -0.04157348349690437 -0.0277785062789917
  vertex -0.10000000149011612 -0.04619397595524788 -0.019134171307086945
  vertex -0.10000000149011612 -0.049039267003536224 -0.009754510596394539
 endloop
endfacet
facet normal -1.0 -6.211142135725822e-06 0.0
 outer loop
  vertex -0.10000000149011612 -0.049039267003536224 -0.009754510596394539
  vertex -0.10000000149011612 -0.05000000074505806 8.742278012618954e-09
  vertex -0.10000000149011612 -0.049039267003536224 0.009754517115652561
 endloop
endfacet
facet normal -0.9999999403953552 1.8633394574862905e-05 0.0
 outer loop
  vertex -0.10000000149011612 -0.049039267003536224 0.009754517115652561
  vertex -0.10000000149011612 -0.04619397595524788 0.019134175032377243
  vertex -0.10000000149011612 -0.041573476046323776 0.027778519317507744
 endloop
endfacet
facet normal -1.0 0.0 0.0
 outer loop
  vertex -0.10000000149011612 -0.041573476046323776 0.027778519317507744
  vertex -0.10000000149011612 -0.0353553406894207 0.0353553406894207
  vertex -0.10000000149011612 -0.027778521180152893 0.041573479771614075
 endloop
endfacet
facet normal -0.9999999403953552 0.0 0.0
 outer loop
  vertex -0.10000000149011612 -0.027778521180152893 0.041573479771614075
  vertex -0.10000000149011612 -0.01913417875766754 0.04619397968053818
  vertex -0.10000000149011612 -0.00975451897829771 0.049039267003536224
 endloop
endfacet
facet normal -1.0 0.0 0.0
 outer loop
  vertex -0.10000000149011612 -0.00975451897829771 0.049039267003536224
  vertex -0.10000000149011612 5.962440541296132e-10 0.05000000447034836
  vertex -0.10000000149011612 0.00975452084094286 0.049039267003536224
 endloop
endfacet
facet normal -1.0 0.0 0.0
 outer loop
  vertex -0.10000000149011612 0.00975452084094286 0.049039267003536224
  vertex -0.10000000149011612 0.01913418062031269 0.04619397595524788
  vertex -0.10000000149011612 0.02777850441634655 0.04157349094748497
 endloop
endfacet
facet normal -1.0 6.211122126842383e-06 0.0
 outer loop
  vertex -0.10000000149011612 0.02777850441634655 0.04157349094748497
  vertex -0.10000000149011612 0.0353553369641304 0.0353553481400013
  vertex -0.10000000149011612 0.041573479771614075 0.027778519317507744
 endloop
endfacet
facet normal -1.0 0.0 0.0
 outer loop
  vertex -0.10000000149011612 0.041573479771614075 0.027778519317507744
  vertex -0.10000000149011612 0.04619397968053818 0.019134175032377243
  vertex -0.10000000149011612 0.049039267003536224 0.009754516184329987
 endloop
endfacet
facet normal -1.0 -3.197122850906453e-06 0.0
 outer loop
  vertex -0.10000000149011612 0.049039267003536224 0.009754516184329987
  vertex -0.10000000149011612 0.049039263278245926 -0.009754511527717113
  vertex -0.10000000149011612 0.041573479771614075 -0.02777850814163685
 endloop
endfacet
facet normal -1.0 -7.992800306055869e-07 0.0
 outer loop
  vertex -0.10000000149011612 0.041573479771614075 -0.02777850814163685
  vertex -0.10000000149011612 0.027778511866927147 -0.041573476046323776
  vertex -0.10000000149011612 0.009754518046975136 -0.04903925955295563
 endloop
endfacet
facet normal -1.0 0.0 0.0
 outer loop
  vertex -0.10000000149011612 0.009754518046975136 -0.04903925955295563
  vertex -0.10000000149011612 -0.009754516184329987 -0.04903925955295563
  vertex -0.10000000149011612 -0.027778510004281998 -0.041573479771614075
 endloop
endfacet
facet normal -1.0 -1.5985593790901476e-06 0.0
 outer loop
  vertex -0.10000000149011612 -0.027778510004281998 -0.041573479771614075
  vertex -0.10000000149011612 -0.04157348349690437 -0.0277785062789917
  vertex -0.10000000149011612 -0.049039267003536224 -0.009754510596394539
 endloop
endfacet
facet normal -1.0 -1.5985590380296344e-06 0.0
 outer loop
  vertex -0.10000000149011612 -0.049039267003536224 -0.009754510596394539
  vertex -0.10000000149011612 -0.049039267003536224 0.009754517115652561
  vertex -0.10000000149011612 -0.041573476046323776 0.027778519317507744
 endloop
endfacet
facet normal -1.0 -7.992806558831944e-07 0.0
 outer loop
  vertex -0.10000000149011612 -0.041573476046323776 0.027778519317507744
  vertex -0.10000000149011612 -0.027778521180152893 0.041573479771614075
  vertex -0.10000000149011612 -0.00975451897829771 0.049039267003536224
 endloop
endfacet
facet normal -1.0 0.0 0.0
 outer loop
  vertex -0.10000000149011612 -0.00975451897829771 0.049039267003536224
  vertex -0.10000000149011612 0.00975452084094286 0.049039267003536224
  vertex -0.10000000149011612 0.02777850441634655 0.04157349094748497
 endloop
endfacet
facet normal -1.0 0.0 0.0
 outer loop
  vertex -0.10000000149011612 0.02777850441634655 0.04157349094748497
  vertex -0.10000000149011612 0.041573479771614075 0.027778519317507744
  vertex -0.10000000149011612 0.049039267003536224 0.009754516184329987
 endloop
endfacet
facet normal -0.9999999403953552 0.0 0.0
 outer loop
  vertex -0.10000000149011612 0.049039267003536224 0.009754516184329987
  vertex -0.10000000149011612 0.041573479771614075 -0.02777850814163685
  vertex -0.10000000149011612 0.009754518046975136 -0.04903925955295563
 endloop
endfacet
facet normal -1.0 0.0 0.0
 outer loop
  vertex -0.10000000149011612 0.009754518046975136 -0.04903925955295563
  vertex -0.10000000149011612 -0.027778510004281998 -0.041573479771614075
  vertex -0.10000000149011612 -0.049039267003536224 -0.009754510596394539
 endloop
endfacet
facet normal -0.9999999403953552 8.993648634714191e-07 0.0
 outer loop
  vertex -0.10000000149011612 -0.049039267003536224 -0.009754510596394539
  vertex -0.10000000149011612 -0.041573476046323776 0.027778519317507744
  vertex -0.10000000149011612 -0.00975451897829771 0.049039267003536224
 endloop
endfacet
facet normal -1.0 0.0 0.0
 outer loop
  vertex -0.10000000149011612 -0.00975451897829771 0.049039267003536224
  vertex -0.10000000149011612 0.02777850441634655 0.04157349094748497
  vertex -0.10000000149011612 0.049039267003536224 0.009754516184329987
 endloop
endfacet
facet normal -1.0 1.862645149230957e-07 0.0
 outer loop
  vertex -0.10000000149011612 0.049039267003536224 0.009754516184329987
  vertex -0.10000000149011612 0.009754518046975136 -0.04903925955295563
  vertex -0.10000000149011612 -0.049039267003536224 -0.009754510596394539
 endloop
endfacet
facet normal -1.0 -1.86264500712241e-07 0.0
 outer loop
  vertex -0.10000000149011612 -0.049039267003536224 -0.009754510596394539
  vertex -0.10000000149011612 -0.00975451897829771 0.049039267003536224
  vertex -0.10000000149011612 0.049039267003536224 0.009754516184329987
 endloop
endfacet
endsolid cylinder
