solid cylinder
facet normal -8.699001519119065e-09 0.9951847195625305 -0.098017618060112
 outer loop
  vertex -0.10000000149011612 0.019999999552965164 8.742278012618954e-09
  vertex 0.10000000149011612 0.019999999552965164 -8.742278012618954e-09
  vertex 0.10000000149011612 0.01961570419371128 -0.0039018152747303247
 endloop
endfacet
facet normal -8.554017938422476e-09 0.9951847195625305 -0.098017618060112
 outer loop
  vertex -0.10000000149011612 0.019999999552965164 8.742278012618954e-09
  vertex 0.10000000149011612 0.01961570419371128 -0.0039018152747303247
  vertex -0.10000000149011612 0.01961570419371128 -0.003901797579601407
 endloop
endfacet
facet normal -2.55170640173219e-08 0.9569401741027832 -0.2902853786945343
 outer loop
  vertex -0.10000000149011612 0.01961570419371128 -0.003901797579601407
  vertex 0.10000000149011612 0.01961570419371128 -0.0039018152747303247
  vertex 0.10000000149011612 0.018477588891983032 -0.007653677836060524
 endloop
endfacet
facet normal -2.6676939768321972e-08 0.9569405317306519 -0.29028430581092834
 outer loop
  vertex -0.10000000149011612 0.01961570419371128 -0.003901797579601407
  vertex 0.10000000149011612 0.018477588891983032 -0.007653677836060524
  vertex -0.10000000149011612 0.018477588891983032 -0.007653660140931606
 endloop
endfacet
facet normal -4.639468897948973e-08 0.8819212913513184 -0.4713967442512512
 outer loop
  vertex -0.10000000149011612 0.018477588891983032 -0.007653660140931606
  vertex 0.10000000149011612 0.018477588891983032 -0.007653677836060524
  vertex 0.10000000149011612 0.01662939228117466 -0.01111141312867403
 endloop
endfacet
facet normal -3.7115754025762726e-08 0.8819215893745422 -0.47139620780944824
 outer loop
  vertex -0.10000000149011612 0.018477588891983032 -0.007653660140931606
  vertex 0.10000000149011612 0.01662939228117466 -0.01111141312867403
  vertex -0.10000000149011612 0.01662939228117466 -0.011111396364867687
 endloop
endfacet
facet normal -5.567363103864409e-08 0.7730106115341187 -0.6343931555747986
 outer loop
  vertex -0.10000000149011612 0.01662939228117466 -0.011111396364867687
  vertex 0.10000000149011612 0.01662939228117466 -0.01111141312867403
  vertex 0.10000000149011612 0.01414213515818119 -0.014142143540084362
 endloop
endfacet
facet normal -5.567360261693466e-08 0.77301025390625 -0.6343934535980225
 outer loop
  vertex -0.10000000149011612 0.01662939228117466 -0.011111396364867687
  vertex 0.10000000149011612 0.01414213515818119 -0.014142143540084362
  vertex -0.10000000149011612 0.01414213515818119 -0.014142126776278019
 endloop
endfacet
facet normal -7.42314654189613e-08 0.6343935132026672 -0.77301025390625
 outer loop
  vertex -0.10000000149011612 0.01414213515818119 -0.014142126776278019
  vertex 0.10000000149011612 0.01414213515818119 -0.014142143540084362
  vertex 0.10000000149011612 0.011111404746770859 -0.016629401594400406
 endloop
endfacet
facet normal -7.423148673524338e-08 0.6343932151794434 -0.7730104923248291
 outer loop
  vertex -0.10000000149011612 0.01414213515818119 -0.014142126776278019
  vertex 0.10000000149011612 0.011111404746770859 -0.016629401594400406
  vertex -0.10000000149011612 0.011111404746770859 -0.016629382967948914
 endloop
endfacet
facet normal -1.0206829159642439e-07 0.4713963270187378 -0.8819214105606079
 outer loop
  vertex -0.10000000149011612 0.011111404746770859 -0.016629382967948914
  vertex 0.10000000149011612 0.011111404746770859 -0.016629401594400406
  vertex 0.10000000149011612 0.007653668522834778 -0.01847759820520878
 endloop
endfacet
facet normal -6.495257309779845e-08 0.47139647603034973 -0.8819214105606079
 outer loop
  vertex -0.10000000149011612 0.011111404746770859 -0.016629382967948914
  vertex 0.10000000149011612 0.007653668522834778 -0.01847759820520878
  vertex -0.10000000149011612 0.007653668522834778 -0.018477579578757286
 endloop
endfacet
facet normal -9.278935664269738e-08 0.29028478264808655 -0.9569403529167175
 outer loop
  vertex -0.10000000149011612 0.007653668522834778 -0.018477579578757286
  vertex 0.10000000149011612 0.007653668522834778 -0.01847759820520878
  vertex 0.10000000149011612 0.003901806892827153 -0.019615713506937027
 endloop
endfacet
facet normal -7.423148673524338e-08 0.29028478264808655 -0.956940233707428
 outer loop
  vertex -0.10000000149011612 0.007653668522834778 -0.018477579578757286
  vertex 0.10000000149011612 0.003901806892827153 -0.019615713506937027
  vertex -0.10000000149011612 0.003901806892827153 -0.019615694880485535
 endloop
endfacet
facet normal -7.423144410267923e-08 0.09801734238862991 -0.9951846599578857
 outer loop
  vertex -0.10000000149011612 0.003901806892827153 -0.019615694880485535
  vertex 0.10000000149011612 0.003901806892827153 -0.019615713506937027
  vertex 0.10000000149011612 -8.742277457507441e-10 -0.02000000886619091
 endloop
endfacet
facet normal -1.113471910230146e-07 0.09801735728979111 -0.9951847195625305
 outer loop
  vertex -0.10000000149011612 0.003901806892827153 -0.019615694880485535
  vertex 0.10000000149011612 -8.742277457507441e-10 -0.02000000886619091
  vertex -0.10000000149011612 -8.742277457507441e-10 -0.019999990239739418
 endloop
endfacet
facet normal -7.423149384067074e-08 -0.09801740944385529 -0.9951846599578857
 outer loop
  vertex -0.10000000149011612 -8.742277457507441e-10 -0.019999990239739418
  vertex 0.10000000149011612 -8.742277457507441e-10 -0.02000000886619091
  vertex 0.10000000149011612 -0.003901806427165866 -0.019615713506937027
 endloop
endfacet
facet normal -1.113472407610061e-07 -0.09801740944385529 -0.9951846599578857
 outer loop
  vertex -0.10000000149011612 -8.742277457507441e-10 -0.019999990239739418
  vertex 0.10000000149011612 -0.003901806427165866 -0.019615713506937027
  vertex -0.10000000149011612 -0.003901806427165866 -0.019615694880485535
 endloop
endfacet
facet normal -9.278937795897946e-08 -0.2902843654155731 -0.9569404125213623
 outer loop
  vertex -0.10000000149011612 -0.003901806427165866 -0.019615694880485535
  vertex 0.10000000149011612 -0.003901806427165866 -0.019615713506937027
  vertex 0.10000000149011612 -0.007653667591512203 -0.018477600067853928
 endloop
endfacet
facet normal -7.423151515695281e-08 -0.2902844250202179 -0.9569404125213623
 outer loop
  vertex -0.10000000149011612 -0.003901806427165866 -0.019615694880485535
  vertex 0.10000000149011612 -0.007653667591512203 -0.018477600067853928
  vertex -0.10000000149011612 -0.007653667591512203 -0.018477581441402435
 endloop
endfacet
facet normal -8.351040747811567e-08 -0.47139668464660645 -0.8819212913513184
 outer loop
  vertex -0.10000000149011612 -0.007653667591512203 -0.018477581441402435
  vertex 0.10000000149011612 -0.007653667591512203 -0.018477600067853928
  vertex 0.10000000149011612 -0.011111403815448284 -0.016629401594400406
 endloop
endfacet
facet normal -8.351042879439774e-08 -0.4713968336582184 -0.8819212317466736
 outer loop
  vertex -0.10000000149011612 -0.007653667591512203 -0.018477581441402435
  vertex 0.10000000149011612 -0.011111403815448284 -0.016629401594400406
  vertex -0.10000000149011612 -0.011111403815448284 -0.016629382967948914
 endloop
endfacet
facet normal -7.42314654189613e-08 -0.6343935132026672 -0.77301025390625
 outer loop
  vertex -0.10000000149011612 -0.011111403815448284 -0.016629382967948914
  vertex 0.10000000149011612 -0.011111403815448284 -0.016629401594400406
  vertex 0.10000000149011612 -0.01414213515818119 -0.014142143540084362
 endloop
endfacet
facet normal -7.423145831353395e-08 -0.6343929767608643 -0.773010790348053
 outer loop
  vertex -0.10000000149011612 -0.011111403815448284 -0.016629382967948914
  vertex 0.10000000149011612 -0.01414213515818119 -0.014142143540084362
  vertex -0.10000000149011612 -0.01414213515818119 -0.014142126776278019
 endloop
endfacet
facet normal -6.495252335980695e-08 -0.7730103135108948 -0.6343933343887329
 outer loop
  vertex -0.10000000149011612 -0.01414213515818119 -0.014142126776278019
  vertex 0.10000000149011612 -0.01414213515818119 -0.014142143540084362
  vertex 0.10000000149011612 -0.01662939228117466 -0.011111412197351456
 endloop
endfacet
facet normal -4.639468187406237e-08 -0.7730106711387634 -0.634393036365509
 outer loop
  vertex -0.10000000149011612 -0.01414213515818119 -0.014142126776278019
  vertex 0.10000000149011612 -0.01662939228117466 -0.011111412197351456
  vertex -0.10000000149011612 -0.01662939228117466 -0.011111395433545113
 endloop
endfacet
facet normal -4.17552428189083e-08 -0.8819214105606079 -0.47139641642570496
 outer loop
  vertex -0.10000000149011612 -0.01662939228117466 -0.011111395433545113
  vertex 0.10000000149011612 -0.01662939228117466 -0.011111412197351456
  vertex 0.10000000149011612 -0.018477588891983032 -0.007653678301721811
 endloop
endfacet
facet normal -3.711575047304905e-08 -0.8819212317466736 -0.4713967442512512
 outer loop
  vertex -0.10000000149011612 -0.01662939228117466 -0.011111395433545113
  vertex 0.10000000149011612 -0.018477588891983032 -0.007653678301721811
  vertex -0.10000000149011612 -0.018477588891983032 -0.007653660606592894
 endloop
endfacet
facet normal -2.4357191819035506e-08 -0.9569401144981384 -0.2902853190898895
 outer loop
  vertex -0.10000000149011612 -0.018477588891983032 -0.007653660606592894
  vertex 0.10000000149011612 -0.018477588891983032 -0.007653678301721811
  vertex 0.10000000149011612 -0.01961570605635643 -0.003901815041899681
 endloop
endfacet
facet normal -2.6676925557467257e-08 -0.9569401144981384 -0.2902853190898895
 outer loop
  vertex -0.10000000149011612 -0.018477588891983032 -0.007653660606592894
  vertex 0.10000000149011612 -0.01961570605635643 -0.003901815041899681
  vertex -0.10000000149011612 -0.01961570605635643 -0.0039017973467707634
 endloop
endfacet
facet normal -8.698998854583806e-09 -0.9951848387718201 -0.0980164036154747
 outer loop
  vertex -0.10000000149011612 -0.01961570605635643 -0.0039017973467707634
  vertex 0.10000000149011612 -0.01961570605635643 -0.003901815041899681
  vertex 0.10000000149011612 -0.019999999552965164 -6.993822410095163e-09
 endloop
endfacet
facet normal -8.554015273887217e-09 -0.9951847195625305 -0.09801758080720901
 outer loop
  vertex -0.10000000149011612 -0.01961570605635643 -0.0039017973467707634
  vertex 0.10000000149011612 -0.019999999552965164 -6.993822410095163e-09
  vertex -0.10000000149011612 -0.019999999552965164 1.0490733615142744e-08
 endloop
endfacet
facet normal 8.554025932028253e-09 -0.9951846599578857 0.09801770746707916
 outer loop
  vertex -0.10000000149011612 -0.019999999552965164 1.0490733615142744e-08
  vertex 0.10000000149011612 -0.019999999552965164 -6.993822410095163e-09
  vertex 0.10000000149011612 -0.01961570605635643 0.0039017959497869015
 endloop
endfacet
facet normal 8.699008624546423e-09 -0.9951847195625305 0.09801651537418365
 outer loop
  vertex -0.10000000149011612 -0.019999999552965164 1.0490733615142744e-08
  vertex 0.10000000149011612 -0.01961570605635643 0.0039017959497869015
  vertex -0.10000000149011612 -0.01961570605635643 0.003901813644915819
 endloop
endfacet
facet normal 2.5517056911894542e-08 -0.9569401741027832 0.29028528928756714
 outer loop
  vertex -0.10000000149011612 -0.01961570605635643 0.003901813644915819
  vertex 0.10000000149011612 -0.01961570605635643 0.0039017959497869015
  vertex 0.10000000149011612 -0.018477588891983032 0.007653659675270319
 endloop
endfacet
facet normal 2.5517056911894542e-08 -0.9569401741027832 0.29028528928756714
 outer loop
  vertex -0.10000000149011612 -0.01961570605635643 0.003901813644915819
  vertex 0.10000000149011612 -0.018477588891983032 0.007653659675270319
  vertex -0.10000000149011612 -0.018477588891983032 0.007653677370399237
 endloop
endfacet
facet normal 4.1755196633630476e-08 -0.8819214105606079 0.47139647603034973
 outer loop
  vertex -0.10000000149011612 -0.018477588891983032 0.007653677370399237
  vertex 0.10000000149011612 -0.018477588891983032 0.007653659675270319
  vertex 0.10000000149011612 -0.01662939041852951 0.011111397296190262
 endloop
endfacet
facet normal 4.1755203739057833e-08 -0.8819213509559631 0.4713965654373169
 outer loop
  vertex -0.10000000149011612 -0.018477588891983032 0.007653677370399237
  vertex 0.10000000149011612 -0.01662939041852951 0.011111397296190262
  vertex -0.10000000149011612 -0.01662939041852951 0.011111414059996605
 endloop
endfacet
facet normal 4.639472450662652e-08 -0.7730106115341187 0.6343929767608643
 outer loop
  vertex -0.10000000149011612 -0.01662939041852951 0.011111414059996605
  vertex 0.10000000149011612 -0.01662939041852951 0.011111397296190262
  vertex 0.10000000149011612 -0.014142136089503765 0.014142125844955444
 endloop
endfacet
facet normal 5.5673645249498804e-08 -0.7730103135108948 0.6343933343887329
 outer loop
  vertex -0.10000000149011612 -0.01662939041852951 0.011111414059996605
  vertex 0.10000000149011612 -0.014142136089503765 0.014142125844955444
  vertex -0.10000000149011612 -0.014142136089503765 0.014142142608761787
 endloop
endfacet
facet normal 6.49526157303626e-08 -0.6343931555747986 0.7730106115341187
 outer loop
  vertex -0.10000000149011612 -0.014142136089503765 0.014142142608761787
  vertex 0.10000000149011612 -0.014142136089503765 0.014142125844955444
  vertex 0.10000000149011612 -0.011111408472061157 0.016629379242658615
 endloop
endfacet
facet normal 6.495258730865316e-08 -0.6343933343887329 0.7730103135108948
 outer loop
  vertex -0.10000000149011612 -0.014142136089503765 0.014142142608761787
  vertex 0.10000000149011612 -0.011111408472061157 0.016629379242658615
  vertex -0.10000000149011612 -0.011111408472061157 0.016629397869110107
 endloop
endfacet
facet normal 1.0206828449099703e-07 -0.4713972210884094 0.8819210529327393
 outer loop
  vertex -0.10000000149011612 -0.011111408472061157 0.016629397869110107
  vertex 0.10000000149011612 -0.011111408472061157 0.016629379242658615
  vertex 0.10000000149011612 -0.007653671316802502 0.018477579578757286
 endloop
endfacet
facet normal 6.495248783267016e-08 -0.471396803855896 0.8819211721420288
 outer loop
  vertex -0.10000000149011612 -0.011111408472061157 0.016629397869110107
  vertex 0.10000000149011612 -0.007653671316802502 0.018477579578757286
  vertex -0.10000000149011612 -0.007653671316802502 0.01847759820520878
 endloop
endfacet
facet normal 7.423145831353395e-08 -0.2902846932411194 0.9569402933120728
 outer loop
  vertex -0.10000000149011612 -0.007653671316802502 0.01847759820520878
  vertex 0.10000000149011612 -0.007653671316802502 0.018477579578757286
  vertex 0.10000000149011612 -0.003901807591319084 0.019615694880485535
 endloop
endfacet
facet normal 1.1134717681215989e-07 -0.290284663438797 0.9569403529167175
 outer loop
  vertex -0.10000000149011612 -0.007653671316802502 0.01847759820520878
  vertex 0.10000000149011612 -0.003901807591319084 0.019615694880485535
  vertex -0.10000000149011612 -0.003901807591319084 0.019615713506937027
 endloop
endfacet
facet normal 1.1134717681215989e-07 -0.09801734983921051 0.9951847195625305
 outer loop
  vertex -0.10000000149011612 -0.003901807591319084 0.019615713506937027
  vertex 0.10000000149011612 -0.003901807591319084 0.019615694880485535
  vertex 0.10000000149011612 2.3849761054961505e-10 0.019999990239739418
 endloop
endfacet
facet normal 7.423145120810659e-08 -0.09801734983921051 0.9951847195625305
 outer loop
  vertex -0.10000000149011612 -0.003901807591319084 0.019615713506937027
  vertex 0.10000000149011612 2.3849761054961505e-10 0.019999990239739418
  vertex -0.10000000149011612 2.3849761054961505e-10 0.02000000886619091
 endloop
endfacet
facet normal 1.1134717681215989e-07 0.09801734983921051 0.9951847195625305
 outer loop
  vertex -0.10000000149011612 2.3849761054961505e-10 0.02000000886619091
  vertex 0.10000000149011612 2.3849761054961505e-10 0.019999990239739418
  vertex 0.10000000149011612 0.003901808289811015 0.019615694880485535
 endloop
endfacet
facet normal 7.423145120810659e-08 0.09801734983921051 0.9951847195625305
 outer loop
  vertex -0.10000000149011612 2.3849761054961505e-10 0.02000000886619091
  vertex 0.10000000149011612 0.003901808289811015 0.019615694880485535
  vertex -0.10000000149011612 0.003901808289811015 0.019615713506937027
 endloop
endfacet
facet normal 7.423145120810659e-08 0.290284663438797 0.9569403529167175
 outer loop
  vertex -0.10000000149011612 0.003901808289811015 0.019615713506937027
  vertex 0.10000000149011612 0.003901808289811015 0.019615694880485535
  vertex 0.10000000149011612 0.007653671782463789 0.018477579578757286
 endloop
endfacet
facet normal 9.27893211155606e-08 0.2902846932411194 0.9569402933120728
 outer loop
  vertex -0.10000000149011612 0.003901808289811015 0.019615713506937027
  vertex 0.10000000149011612 0.007653671782463789 0.018477579578757286
  vertex -0.10000000149011612 0.007653671782463789 0.01847759820520878
 endloop
endfacet
facet normal 8.351058511379961e-08 0.4713967442512512 0.8819213509559631
 outer loop
  vertex -0.10000000149011612 0.007653671782463789 0.01847759820520878
  vertex 0.10000000149011612 0.007653671782463789 0.018477579578757286
  vertex 0.10000000149011612 0.01111140102148056 0.016629384830594063
 endloop
endfacet
facet normal 8.351058511379961e-08 0.4713967442512512 0.8819213509559631
 outer loop
  vertex -0.10000000149011612 0.007653671782463789 0.01847759820520878
  vertex 0.10000000149011612 0.01111140102148056 0.016629384830594063
  vertex -0.10000000149011612 0.01111140102148056 0.016629403457045555
 endloop
endfacet
facet normal 7.423145831353395e-08 0.6343929767608643 0.773010790348053
 outer loop
  vertex -0.10000000149011612 0.01111140102148056 0.016629403457045555
  vertex 0.10000000149011612 0.01111140102148056 0.016629384830594063
  vertex 0.10000000149011612 0.014142134226858616 0.014142128638923168
 endloop
endfacet
facet normal 7.423143699725188e-08 0.6343932747840881 0.7730105519294739
 outer loop
  vertex -0.10000000149011612 0.01111140102148056 0.016629403457045555
  vertex 0.10000000149011612 0.014142134226858616 0.014142128638923168
  vertex -0.10000000149011612 0.014142134226858616 0.014142145402729511
 endloop
endfacet
facet normal 4.639464634692558e-08 0.7730101346969604 0.6343937516212463
 outer loop
  vertex -0.10000000149011612 0.014142134226858616 0.014142145402729511
  vertex 0.10000000149011612 0.014142134226858616 0.014142128638923168
  vertex 0.10000000149011612 0.01662939228117466 0.011111397296190262
 endloop
endfacet
facet normal 5.567362038050305e-08 0.7730106711387634 0.634393036365509
 outer loop
  vertex -0.10000000149011612 0.014142134226858616 0.014142145402729511
  vertex 0.10000000149011612 0.01662939228117466 0.011111397296190262
  vertex -0.10000000149011612 0.01662939228117466 0.011111414059996605
 endloop
endfacet
facet normal 3.711571849862594e-08 0.881921112537384 0.47139695286750793
 outer loop
  vertex -0.10000000149011612 0.01662939228117466 0.011111414059996605
  vertex 0.10000000149011612 0.01662939228117466 0.011111397296190262
  vertex 0.10000000149011612 0.01847759075462818 0.007653659675270319
 endloop
endfacet
facet normal 4.6394671215921335e-08 0.8819213509559631 0.4713965654373169
 outer loop
  vertex -0.10000000149011612 0.01662939228117466 0.011111414059996605
  vertex 0.10000000149011612 0.01847759075462818 0.007653659675270319
  vertex -0.10000000149011612 0.01847759075462818 0.007653677370399237
 endloop
endfacet
facet normal 1.0 -1.9409784727031365e-05 0.0
 outer loop
  vertex 0.10000000149011612 0.018477588891983032 -0.007653677836060524
  vertex 0.10000000149011612 0.01961570419371128 -0.0039018152747303247
  vertex 0.10000000149011612 0.019999999552965164 -8.742278012618954e-09
 endloop
endfacet
facet normal 1.0 0.0 0.0
 outer loop
  vertex 0.10000000149011612 0.019999999552965164 -8.742278012618954e-09
  vertex 0.10000000149011612 0.01961570605635643 0.003901795716956258
  vertex 0.10000000149011612 0.01847759075462818 0.007653659675270319
 endloop
endfacet
facet normal 1.0 0.0 0.0
 outer loop
  vertex 0.10000000149011612 0.01847759075462818 0.007653659675270319
  vertex 0.10000000149011612 0.01662939228117466 0.011111397296190262
  vertex 0.10000000149011612 0.014142134226858616 0.014142128638923168
 endloop
endfacet
facet normal 0.9999999403953552 0.0 0.0
 outer loop
  vertex 0.10000000149011612 0.014142134226858616 0.014142128638923168
  vertex 0.10000000149011612 0.01111140102148056 0.016629384830594063
  vertex 0.10000000149011612 0.007653671782463789 0.018477579578757286
 endloop
endfacet
facet normal 1.0 2.426218770779087e-06 0.0
 outer loop
  vertex 0.10000000149011612 0.007653671782463789 0.018477579578757286
  vertex 0.10000000149011612 0.003901808289811015 0.019615694880485535
  vertex 0.10000000149011612 2.3849761054961505e-10 0.019999990239739418
 endloop
endfacet
facet normal 1.0 0.0 0.0
 outer loop
  vertex 0.10000000149011612 2.3849761054961505e-10 0.019999990239739418
  vertex 0.10000000149011612 -0.003901807591319084 0.019615694880485535
  vertex 0.10000000149011612 -0.007653671316802502 0.018477579578757286
 endloop
endfacet
facet normal 1.0 0.0 0.0
 outer loop
  vertex 0.10000000149011612 -0.007653671316802502 0.018477579578757286
  vertex 0.10000000149011612 -0.011111408472061157 0.016629379242658615
  vertex 0.10000000149011612 -0.014142136089503765 0.014142125844955444
 endloop
endfacet
facet normal 1.0 0.0 0.0
 outer loop
  vertex 0.10000000149011612 -0.014142136089503765 0.014142125844955444
  vertex 0.10000000149011612 -0.01662939041852951 0.011111397296190262
  vertex 0.10000000149011612 -0.018477588891983032 0.007653659675270319
 endloop
endfacet
facet normal 0.9999999403953552 1.9409719243412837e-05 0.0
 outer loop
  vertex 0.10000000149011612 -0.018477588891983032 0.007653659675270319
  vertex 0.10000000149011612 -0.01961570605635643 0.0039017959497869015
  vertex 0.10000000149011612 -0.019999999552965164 -6.993822410095163e-09
 endloop
endfacet
facet normal 1.0 1.940969013958238e-05 0.0
 outer loop
  vertex 0.10000000149011612 -0.019999999552965164 -6.993822410095163e-09
  vertex 0.10000000149011612 -0.01961570605635643 -0.003901815041899681
  vertex 0.10000000149011612 -0.018477588891983032 -0.007653678301721811
 endloop
endfacet
facet normal 1.0 -1.9409773813094944e-05 0.0
 outer loop
  vertex 0.10000000149011612 -0.018477588891983032 -0.007653678301721811
  vertex 0.10000000149011612 -0.01662939228117466 -0.011111412197351456
  vertex 0.10000000149011612 -0.01414213515818119 -0.014142143540084362
 endloop
endfacet
facet normal 1.0 9.704851436254103e-06 0.0
 outer loop
  vertex 0.10000000149011612 -0.01414213515818119 -0.014142143540084362
  vertex 0.10000000149011612 -0.011111403815448284 -0.016629401594400406
  vertex 0.10000000149011612 -0.007653667591512203 -0.018477600067853928
 endloop
endfacet
facet normal 1.0 -2.426242190267658e-06 0.0
 outer loop
  vertex 0.10000000149011612 -0.007653667591512203 -0.018477600067853928
  vertex 0.10000000149011612 -0.003901806427165866 -0.019615713506937027
  vertex 0.10000000149011612 -8.742277457507441e-10 -0.02000000886619091
 endloop
endfacet
facet normal 1.0 0.0 0.0
 outer loop
  vertex 0.10000000149011612 -8.742277457507441e-10 -0.02000000886619091
  vertex 0.10000000149011612 0.003901806892827153 -0.019615713506937027
  vertex 0.10000000149011612 0.007653668522834778 -0.01847759820520878
 endloop
endfacet
facet normal 1.0 0.0 0.0
 outer loop
  vertex 0.10000000149011612 0.007653668522834778 -0.01847759820520878
  vertex 0.10000000149011612 0.011111404746770859 -0.016629401594400406
  vertex 0.10000000149011612 0.01414213515818119 -0.014142143540084362
 endloop
endfacet
facet normal 1.0 -1.9409655578783713e-05 0.0
 outer loop
  vertex 0.10000000149011612 0.01414213515818119 -0.014142143540084362
  vertex 0.10000000149011612 0.01662939228117466 -0.01111141312867403
  vertex 0.10000000149011612 0.018477588891983032 -0.007653677836060524
 endloop
endfacet
facet normal 1.0 0.0 0.0
 outer loop
  vertex 0.10000000149011612 0.018477588891983032 -0.007653677836060524
  vertex 0.10000000149011612 0.019999999552965164 -8.742278012618954e-09
  vertex 0.10000000149011612 0.01847759075462818 0.007653659675270319
 endloop
endfacet
facet normal 1.0 4.995501058147056e-06 0.0
 outer loop
  vertex 0.10000000149011612 0.01847759075462818 0.007653659675270319
  vertex 0.10000000149011612 0.014142134226858616 0.014142128638923168
  vertex 0.10000000149011612 0.007653671782463789 0.018477579578757286
 endloop
endfacet
facet normal 0.9999999403953552 0.0 0.0
 outer loop
  vertex 0.10000000149011612 0.007653671782463789 0.018477579578757286
  vertex 0.10000000149011612 2.3849761054961505e-10 0.019999990239739418
  vertex 0.10000000149011612 -0.007653671316802502 0.018477579578757286
 endloop
endfacet
facet normal 1.0 -4.9954992391576525e-06 0.0
 outer loop
  vertex 0.10000000149011612 -0.007653671316802502 0.018477579578757286
  vertex 0.10000000149011612 -0.014142136089503765 0.014142125844955444
  vertex 0.10000000149011612 -0.018477588891983032 0.007653659675270319
 endloop
endfacet
facet normal 0.9999999403953552 0.0 0.0
 outer loop
  vertex 0.10000000149011612 -0.018477588891983032 0.007653659675270319
  vertex 0.10000000149011612 -0.019999999552965164 -6.993822410095163e-09
  vertex 0.10000000149011612 -0.018477588891983032 -0.007653678301721811
 endloop
endfacet
facet normal 1.0 -7.493251359846909e-06 0.0
 outer loop
  vertex 0.10000000149011612 -0.018477588891983032 -0.007653678301721811
  vertex 0.10000000149011612 -0.01414213515818119 -0.014142143540084362
  vertex 0.10000000149011612 -0.007653667591512203 -0.018477600067853928
 endloop
endfacet
facet normal 1.0 0.0 0.0
 outer loop
  vertex 0.10000000149011612 -0.007653667591512203 -0.018477600067853928
  vertex 0.10000000149011612 -8.742277457507441e-10 -0.02000000886619091
  vertex 0.10000000149011612 0.007653668522834778 -0.01847759820520878
 endloop
endfacet
facet normal 1.0 4.995501058147056e-06 0.0
 outer loop
  vertex 0.10000000149011612 0.007653668522834778 -0.01847759820520878
  vertex 0.10000000149011612 0.01414213515818119 -0.014142143540084362
  vertex 0.10000000149011612 0.018477588891983032 -0.007653677836060524
 endloop
endfacet
facet normal 1.0 0.0 0.0
 outer loop
  vertex 0.10000000149011612 0.018477588891983032 -0.007653677836060524
  vertex 0.10000000149011612 0.01847759075462818 0.007653659675270319
  vertex 0.10000000149011612 0.007653671782463789 0.018477579578757286
 endloop
endfacet
facet normal 1.0 0.0 0.0
 outer loop
  vertex 0.10000000149011612 0.007653671782463789 0.018477579578757286
  vertex 0.10000000149011612 -0.007653671316802502 0.018477579578757286
  vertex 0.10000000149011612 -0.018477588891983032 0.007653659675270319
 endloop
endfacet
facet normal 1.0 0.0 0.0
 outer loop
  vertex 0.10000000149011612 -0.018477588891983032 0.007653659675270319
  vertex 0.10000000149011612 -0.018477588891983032 -0.007653678301721811
  vertex 0.10000000149011612 -0.007653667591512203 -0.018477600067853928
 endloop
endfacet
facet normal 0.9999999403953552 0.0 0.0
 outer loop
  vertex 0.10000000149011612 -0.007653667591512203 -0.018477600067853928
  vertex 0.10000000149011612 0.007653668522834778 -0.01847759820520878
  vertex 0.10000000149011612 0.018477588891983032 -0.007653677836060524
 endloop
endfacet
facet normal 1.0 0.0 0.0
 outer loop
  vertex 0.10000000149011612 0.018477588891983032 -0.007653677836060524
  vertex 0.10000000149011612 0.007653671782463789 0.018477579578757286
  vertex 0.10000000149011612 -0.018477588891983032 0.007653659675270319
 endloop
endfacet
facet normal 1.0 0.0 0.0
 outer loop
  vertex 0.10000000149011612 -0.018477588891983032 0.007653659675270319
  vertex 0.10000000149011612 -0.007653667591512203 -0.018477600067853928
  vertex 0.10000000149011612 0.018477588891983032 -0.007653677836060524
 endloop
endfacet
facet normal 2.5517058688251382e-08 0.9569403529167175 0.2902847230434418
 outer loop
  vertex -0.10000000149011612 0.01847759075462818 0.007653677370399237
  vertex 0.10000000149011612 0.01847759075462818 0.007653659675270319
  vertex 0.10000000149011612 0.01961570605635643 0.003901795716956258
 endloop
endfacet
facet normal 2.5517058688251382e-08 0.9569403529167175 0.2902847230434418
 outer loop
  vertex -0.10000000149011612 0.01847759075462818 0.007653677370399237
  vertex 0.10000000149011612 0.01961570605635643 0.003901795716956258
  vertex -0.10000000149011612 0.01961570605635643 0.0039018134120851755
 endloop
endfacet
facet normal 8.699005960011164e-09 0.9951847195625305 0.09801647812128067
 outer loop
  vertex -0.10000000149011612 0.01961570605635643 0.0039018134120851755
  vertex 0.10000000149011612 0.01961570605635643 0.003901795716956258
  vertex 0.10000000149011612 0.019999999552965164 -8.742278012618954e-09
 endloop
endfacet
facet normal 8.699005071832744e-09 0.9951846599578857 0.09801765531301498
 outer loop
  vertex -0.10000000149011612 0.01961570605635643 0.0039018134120851755
  vertex 0.10000000149011612 0.019999999552965164 -8.742278012618954e-09
  vertex -0.10000000149011612 0.019999999552965164 8.742278012618954e-09
 endloop
endfacet
facet normal -1.0 0.0 0.0
 outer loop
  vertex -0.10000000149011612 0.01961570605635643 0.0039018134120851755
  vertex -0.10000000149011612 0.019999999552965164 8.742278012618954e-09
  vertex -0.10000000149011612 0.01961570419371128 -0.003901797579601407
 endloop
endfacet
facet normal -0.9999999403953552 1.9409819287830032e-05 0.0
 outer loop
  vertex -0.10000000149011612 0.01961570419371128 -0.003901797579601407
  vertex -0.10000000149011612 0.018477588891983032 -0.007653660140931606
  vertex -0.10000000149011612 0.01662939228117466 -0.011111396364867687
 endloop
endfacet
facet normal -1.0 0.0 0.0
 outer loop
  vertex -0.10000000149011612 0.01662939228117466 -0.011111396364867687
  vertex -0.10000000149011612 0.01414213515818119 -0.014142126776278019
  vertex -0.10000000149011612 0.011111404746770859 -0.016629382967948914
 endloop
endfacet
facet normal -1.0 0.0 0.0
 outer loop
  vertex -0.10000000149011612 0.011111404746770859 -0.016629382967948914
  vertex -0.10000000149011612 0.007653668522834778 -0.018477579578757286
  vertex -0.10000000149011612 0.003901806892827153 -0.019615694880485535
 endloop
endfacet
facet normal -0.9999999403953552 0.0 0.0
 outer loop
  vertex -0.10000000149011612 0.003901806892827153 -0.019615694880485535
  vertex -0.10000000149011612 -8.742277457507441e-10 -0.019999990239739418
  vertex -0.10000000149011612 -0.003901806427165866 -0.019615694880485535
 endloop
endfacet
facet normal -1.0 -9.704827789391857e-06 0.0
 outer loop
  vertex -0.10000000149011612 -0.003901806427165866 -0.019615694880485535
  vertex -0.10000000149011612 -0.007653667591512203 -0.018477581441402435
  vertex -0.10000000149011612 -0.011111403815448284 -0.016629382967948914
 endloop
endfacet
facet normal -1.0 -1.940979745995719e-05 0.0
 outer loop
  vertex -0.10000000149011612 -0.011111403815448284 -0.016629382967948914
  vertex -0.10000000149011612 -0.01414213515818119 -0.014142126776278019
  vertex -0.10000000149011612 -0.01662939228117466 -0.011111395433545113
 endloop
endfacet
facet normal -0.9999999403953552 1.940984293469228e-05 0.0
 outer loop
  vertex -0.10000000149011612 -0.01662939228117466 -0.011111395433545113
  vertex -0.10000000149011612 -0.018477588891983032 -0.007653660606592894
  vertex -0.10000000149011612 -0.01961570605635643 -0.0039017973467707634
 endloop
endfacet
facet normal -0.9999999403953552 0.0 0.0
 outer loop
  vertex -0.10000000149011612 -0.01961570605635643 -0.0039017973467707634
  vertex -0.10000000149011612 -0.019999999552965164 1.0490733615142744e-08
  vertex -0.10000000149011612 -0.01961570605635643 0.003901813644915819
 endloop
endfacet
facet normal -1.0 1.940979745995719e-05 0.0
 outer loop
  vertex -0.10000000149011612 -0.01961570605635643 0.003901813644915819
  vertex -0.10000000149011612 -0.018477588891983032 0.007653677370399237
  vertex -0.10000000149011612 -0.01662939041852951 0.011111414059996605
 endloop
endfacet
facet normal -0.9999999403953552 0.0 0.0
 outer loop
  vertex -0.10000000149011612 -0.01662939041852951 0.011111414059996605
  vertex -0.10000000149011612 -0.014142136089503765 0.014142142608761787
  vertex -0.10000000149011612 -0.011111408472061157 0.016629397869110107
 endloop
endfacet
facet normal -1.0 -9.704827789391857e-06 0.0
 outer loop
  vertex -0.10000000149011612 -0.011111408472061157 0.016629397869110107
  vertex -0.10000000149011612 -0.007653671316802502 0.01847759820520878
  vertex -0.10000000149011612 -0.003901807591319084 0.019615713506937027
 endloop
endfacet
facet normal -1.0 0.0 0.0
 outer loop
  vertex -0.10000000149011612 -0.003901807591319084 0.019615713506937027
  vertex -0.10000000149011612 2.3849761054961505e-10 0.02000000886619091
  vertex -0.10000000149011612 0.003901808289811015 0.019615713506937027
 endloop
endfacet
facet normal -1.0 -9.704780495667364e-06 0.0
 outer loop
  vertex -0.10000000149011612 0.003901808289811015 0.019615713506937027
  vertex -0.10000000149011612 0.007653671782463789 0.01847759820520878
  vertex -0.10000000149011612 0.01111140102148056 0.016629403457045555
 endloop
endfacet
facet normal -1.0 0.0 0.0
 outer loop
  vertex -0.10000000149011612 0.01111140102148056 0.016629403457045555
  vertex -0.10000000149011612 0.014142134226858616 0.014142145402729511
  vertex -0.10000000149011612 0.01662939228117466 0.011111414059996605
 endloop
endfacet
facet normal -1.0 0.0 0.0
 outer loop
  vertex -0.10000000149011612 0.01662939228117466 0.011111414059996605
  vertex -0.10000000149011612 0.01847759075462818 0.007653677370399237
  vertex -0.10000000149011612 0.01961570605635643 0.0039018134120851755
 endloop
endfacet
facet normal -1.0 -4.9955074246099684e-06 0.0
 outer loop
  vertex -0.10000000149011612 0.01961570605635643 0.0039018134120851755
  vertex -0.10000000149011612 0.01961570419371128 -0.003901797579601407
  vertex -0.10000000149011612 0.01662939228117466 -0.011111396364867687
 endloop
endfacet
facet normal -1.0 0.0 0.0
 outer loop
  vertex -0.10000000149011612 0.01662939228117466 -0.011111396364867687
  vertex -0.10000000149011612 0.011111404746770859 -0.016629382967948914
  vertex -0.10000000149011612 0.003901806892827153 -0.019615694880485535
 endloop
endfacet
facet normal -1.0 0.0 0.0
 outer loop
  vertex -0.10000000149011612 0.003901806892827153 -0.019615694880485535
  vertex -0.10000000149011612 -0.003901806427165866 -0.019615694880485535
  vertex -0.10000000149011612 -0.011111403815448284 -0.016629382967948914
 endloop
endfacet
facet normal -1.0 0.0 0.0
 outer loop
  vertex -0.10000000149011612 -0.011111403815448284 -0.016629382967948914
  vertex -0.10000000149011612 -0.01662939228117466 -0.011111395433545113
  vertex -0.10000000149011612 -0.01961570605635643 -0.0039017973467707634
 endloop
endfacet
facet normal -1.0 -4.995498784410302e-06 0.0
 outer loop
  vertex -0.10000000149011612 -0.01961570605635643 -0.0039017973467707634
  vertex -0.10000000149011612 -0.01961570605635643 0.003901813644915819
  vertex -0.10000000149011612 -0.01662939041852951 0.011111414059996605
 endloop
endfacet
facet normal -1.0 2.497750529073528e-06 0.0
 outer loop
  vertex -0.10000000149011612 -0.01662939041852951 0.011111414059996605
  vertex -0.10000000149011612 -0.011111408472061157 0.016629397869110107
  vertex -0.10000000149011612 -0.003901807591319084 0.019615713506937027
 endloop
endfacet
facet normal -1.0 0.0 0.0
 outer loop
  vertex -0.10000000149011612 -0.003901807591319084 0.019615713506937027
  vertex -0.10000000149011612 0.003901808289811015 0.019615713506937027
  vertex -0.10000000149011612 0.01111140102148056 0.016629403457045555
 endloop
endfacet
facet normal -1.0 0.0 0.0
 outer loop
  vertex -0.10000000149011612 0.01111140102148056 0.016629403457045555
  vertex -0.10000000149011612 0.01662939228117466 0.011111414059996605
  vertex -0.10000000149011612 0.01961570605635643 0.0039018134120851755
 endloop
endfacet
facet normal -1.0 0.0 0.0
 outer loop
  vertex -0.10000000149011612 0.01961570605635643 0.0039018134120851755
  vertex -0.10000000149011612 0.01662939228117466 -0.011111396364867687
  vertex -0.10000000149011612 0.003901806892827153 -0.019615694880485535
 endloop
endfacet
facet normal -0.9999999403953552 1.4052576489120838e-06 0.0
 outer loop
  vertex -0.10000000149011612 0.003901806892827153 -0.019615694880485535
  vertex -0.10000000149011612 -0.011111403815448284 -0.016629382967948914
  vertex -0.10000000149011612 -0.01961570605635643 -0.0039017973467707634
 endloop
endfacet
facet normal -0.9999999403953552 -2.1078865302115446e-06 0.0
 outer loop
  vertex -0.10000000149011612 -0.01961570605635643 -0.0039017973467707634
  vertex -0.10000000149011612 -0.01662939041852951 0.011111414059996605
  vertex -0.10000000149011612 -0.003901807591319084 0.019615713506937027
 endloop
endfacet
facet normal -1.0 0.0 0.0
 outer loop
  vertex -0.10000000149011612 -0.003901807591319084 0.019615713506937027
  vertex -0.10000000149011612 0.01111140102148056 0.016629403457045555
  vertex -0.10000000149011612 0.01961570605635643 0.0039018134120851755
 endloop
endfacet
facet normal -1.0 -2.9103833298904647e-07 0.0
 outer loop
  vertex -0.10000000149011612 0.01961570605635643 0.0039018134120851755
  vertex -0.10000000149011612 0.003901806892827153 -0.019615694880485535
  vertex -0.10000000149011612 -0.01961570605635643 -0.0039017973467707634
 endloop
endfacet
facet normal -1.0 5.820766091346741e-07 0.0
 outer loop
  vertex -0.10000000149011612 -0.01961570605635643 -0.0039017973467707634
  vertex -0.10000000149011612 -0.003901807591319084 0.019615713506937027
  vertex -0.10000000149011612 0.01961570605635643 0.0039018134120851755
 endloop
endfacet
endsolid cylinder
