solid sphere
facet normal 0.5773502588272095 0.5773502588272095 0.5773502588272095
 outer loop
  vertex 0.0775880515575409 0.06000000238418579 0.06000000238418579
  vertex 0.06000000238418579 0.0775880515575409 0.06000000238418579
  vertex 0.06000000238418579 0.06000000238418579 0.0775880515575409
 endloop
endfacet
facet normal 0.6721112728118896 0.6721112728118896 0.31069713830947876
 outer loop
  vertex 0.06000000238418579 0.0775880515575409 0.06000000238418579
  vertex 0.0775880515575409 0.06000000238418579 0.06000000238418579
  vertex 0.09607885032892227 0.06000000238418579 0.020000001415610313
 endloop
endfacet
facet normal 0.6721115112304688 0.6721112132072449 0.3106968402862549
 outer loop
  vertex 0.06000000238418579 0.0775880515575409 0.06000000238418579
  vertex 0.09607885032892227 0.06000000238418579 0.020000001415610313
  vertex 0.06000000238418579 0.09607885032892227 0.020000001415610313
 endloop
endfacet
facet normal 0.7071067690849304 0.7071068286895752 0.0
 outer loop
  vertex 0.06000000238418579 0.09607885032892227 0.020000001415610313
  vertex 0.09607885032892227 0.06000000238418579 0.020000001415610313
  vertex 0.09607885032892227 0.06000000238418579 -0.020000001415610313
 endloop
endfacet
facet normal 0.70710688829422 0.7071067094802856 0.0
 outer loop
  vertex 0.06000000238418579 0.09607885032892227 0.020000001415610313
  vertex 0.09607885032892227 0.06000000238418579 -0.020000001415610313
  vertex 0.06000000238418579 0.09607885032892227 -0.020000001415610313
 endloop
endfacet
facet normal 0.8718588948249817 0.4897572994232178 0.0
 outer loop
  vertex 0.09607885032892227 0.06000000238418579 -0.020000001415610313
  vertex 0.09607885032892227 0.06000000238418579 0.020000001415610313
  vertex 0.10000000894069672 0.05301959067583084 0.020000001415610313
 endloop
endfacet
facet normal 0.8718600273132324 0.4897550344467163 0.0
 outer loop
  vertex 0.09607885032892227 0.06000000238418579 -0.020000001415610313
  vertex 0.10000000894069672 0.05301959067583084 0.020000001415610313
  vertex 0.10000000894069672 0.05301959067583084 -0.020000001415610313
 endloop
endfacet
facet normal 0.9442672729492188 0.32917970418930054 0.0
 outer loop
  vertex 0.10000000894069672 0.05301959067583084 0.020000001415610313
  vertex 0.11151093989610672 0.020000001415610313 0.020000001415610313
  vertex 0.11151093989610672 0.020000001415610313 -0.020000001415610313
 endloop
endfacet
facet normal 0.9442670941352844 0.3291803300380707 0.0
 outer loop
  vertex 0.10000000894069672 0.05301959067583084 0.020000001415610313
  vertex 0.11151093989610672 0.020000001415610313 -0.020000001415610313
  vertex 0.10000000894069672 0.05301959067583084 -0.020000001415610313
 endloop
endfacet
facet normal 0.8969216346740723 0.3126751482486725 -0.3126751482486725
 outer loop
  vertex 0.10000000894069672 0.05301959067583084 -0.020000001415610313
  vertex 0.11151093989610672 0.020000001415610313 -0.020000001415610313
  vertex 0.10000000894069672 0.020000001415610313 -0.05301959067583084
 endloop
endfacet
facet normal 0.9442670941352844 0.0 -0.3291800916194916
 outer loop
  vertex 0.10000000894069672 0.020000001415610313 -0.05301959067583084
  vertex 0.11151093989610672 0.020000001415610313 -0.020000001415610313
  vertex 0.11151093989610672 -0.020000001415610313 -0.020000001415610313
 endloop
endfacet
facet normal 0.9442670941352844 0.0 -0.32918018102645874
 outer loop
  vertex 0.10000000894069672 0.020000001415610313 -0.05301959067583084
  vertex 0.11151093989610672 -0.020000001415610313 -0.020000001415610313
  vertex 0.10000000894069672 -0.020000001415610313 -0.05301959067583084
 endloop
endfacet
facet normal 0.8969216346740723 -0.3126751482486725 -0.3126751482486725
 outer loop
  vertex 0.11151093989610672 -0.020000001415610313 -0.020000001415610313
  vertex 0.10000000894069672 -0.05301959067583084 -0.020000001415610313
  vertex 0.10000000894069672 -0.020000001415610313 -0.05301959067583084
 endloop
endfacet
facet normal 0.9442672729492188 -0.32917970418930054 0.0
 outer loop
  vertex 0.11151093989610672 -0.020000001415610313 -0.020000001415610313
  vertex 0.11151093989610672 -0.020000001415610313 0.020000001415610313
  vertex 0.10000000894069672 -0.05301959067583084 0.020000001415610313
 endloop
endfacet
facet normal 0.9442670941352844 -0.3291803300380707 0.0
 outer loop
  vertex 0.11151093989610672 -0.020000001415610313 -0.020000001415610313
  vertex 0.10000000894069672 -0.05301959067583084 0.020000001415610313
  vertex 0.10000000894069672 -0.05301959067583084 -0.020000001415610313
 endloop
endfacet
facet normal 0.8969216346740723 -0.3126751482486725 0.3126751482486725
 outer loop
  vertex 0.10000000894069672 -0.05301959067583084 0.020000001415610313
  vertex 0.11151093989610672 -0.020000001415610313 0.020000001415610313
  vertex 0.10000000894069672 -0.020000001415610313 0.05301959067583084
 endloop
endfacet
facet normal 0.9442670941352844 0.0 0.3291800916194916
 outer loop
  vertex 0.11151093989610672 -0.020000001415610313 0.020000001415610313
  vertex 0.11151093989610672 0.020000001415610313 0.020000001415610313
  vertex 0.10000000894069672 0.020000001415610313 0.05301959067583084
 endloop
endfacet
facet normal 0.9442670941352844 0.0 0.32918018102645874
 outer loop
  vertex 0.11151093989610672 -0.020000001415610313 0.020000001415610313
  vertex 0.10000000894069672 0.020000001415610313 0.05301959067583084
  vertex 0.10000000894069672 -0.020000001415610313 0.05301959067583084
 endloop
endfacet
facet normal 0.8718594908714294 0.0 0.4897559881210327
 outer loop
  vertex 0.10000000894069672 0.020000001415610313 0.05301959067583084
  vertex 0.09607885032892227 0.020000001415610313 0.06000000238418579
  vertex 0.09607885032892227 -0.020000001415610313 0.06000000238418579
 endloop
endfacet
facet normal 0.8718594908714294 0.0 0.4897559881210327
 outer loop
  vertex 0.10000000894069672 0.020000001415610313 0.05301959067583084
  vertex 0.09607885032892227 -0.020000001415610313 0.06000000238418579
  vertex 0.10000000894069672 -0.020000001415610313 0.05301959067583084
 endloop
endfacet
facet normal 0.7071067094802856 0.0 0.70710688829422
 outer loop
  vertex 0.09607885032892227 -0.020000001415610313 0.06000000238418579
  vertex 0.09607885032892227 0.020000001415610313 0.06000000238418579
  vertex 0.06000000238418579 0.020000001415610313 0.09607885032892227
 endloop
endfacet
facet normal 0.7071068286895752 0.0 0.7071067690849304
 outer loop
  vertex 0.09607885032892227 -0.020000001415610313 0.06000000238418579
  vertex 0.06000000238418579 0.020000001415610313 0.09607885032892227
  vertex 0.06000000238418579 -0.020000001415610313 0.09607885032892227
 endloop
endfacet
facet normal 0.4897550344467163 0.0 0.8718600273132324
 outer loop
  vertex 0.06000000238418579 0.020000001415610313 0.09607885032892227
  vertex 0.05301959067583084 0.020000001415610313 0.10000000894069672
  vertex 0.05301959067583084 -0.020000001415610313 0.10000000894069672
 endloop
endfacet
facet normal 0.4897572994232178 0.0 0.8718588948249817
 outer loop
  vertex 0.06000000238418579 0.020000001415610313 0.09607885032892227
  vertex 0.05301959067583084 -0.020000001415610313 0.10000000894069672
  vertex 0.06000000238418579 -0.020000001415610313 0.09607885032892227
 endloop
endfacet
facet normal 0.3291803300380707 0.0 0.9442670941352844
 outer loop
  vertex 0.05301959067583084 -0.020000001415610313 0.10000000894069672
  vertex 0.05301959067583084 0.020000001415610313 0.10000000894069672
  vertex 0.020000001415610313 0.020000001415610313 0.11151093989610672
 endloop
endfacet
facet normal 0.32917970418930054 0.0 0.9442672729492188
 outer loop
  vertex 0.05301959067583084 -0.020000001415610313 0.10000000894069672
  vertex 0.020000001415610313 0.020000001415610313 0.11151093989610672
  vertex 0.020000001415610313 -0.020000001415610313 0.11151093989610672
 endloop
endfacet
facet normal 0.3126751482486725 -0.3126751482486725 0.8969216346740723
 outer loop
  vertex 0.020000001415610313 -0.05301959067583084 0.10000000894069672
  vertex 0.05301959067583084 -0.020000001415610313 0.10000000894069672
  vertex 0.020000001415610313 -0.020000001415610313 0.11151093989610672
 endloop
endfacet
facet normal 0.0 -0.32918018102645874 0.9442670941352844
 outer loop
  vertex -0.020000001415610313 -0.05301959067583084 0.10000000894069672
  vertex 0.020000001415610313 -0.05301959067583084 0.10000000894069672
  vertex 0.020000001415610313 -0.020000001415610313 0.11151093989610672
 endloop
endfacet
facet normal 0.0 -0.3291800916194916 0.9442670941352844
 outer loop
  vertex -0.020000001415610313 -0.05301959067583084 0.10000000894069672
  vertex 0.020000001415610313 -0.020000001415610313 0.11151093989610672
  vertex -0.020000001415610313 -0.020000001415610313 0.11151093989610672
 endloop
endfacet
facet normal 0.0 -0.4897559881210327 0.8718594908714294
 outer loop
  vertex 0.020000001415610313 -0.06000000238418579 0.09607885032892227
  vertex 0.020000001415610313 -0.05301959067583084 0.10000000894069672
  vertex -0.020000001415610313 -0.05301959067583084 0.10000000894069672
 endloop
endfacet
facet normal 0.0 -0.4897559881210327 0.8718594908714294
 outer loop
  vertex 0.020000001415610313 -0.06000000238418579 0.09607885032892227
  vertex -0.020000001415610313 -0.05301959067583084 0.10000000894069672
  vertex -0.020000001415610313 -0.06000000238418579 0.09607885032892227
 endloop
endfacet
facet normal 0.0 -0.7071067690849304 0.7071068286895752
 outer loop
  vertex -0.020000001415610313 -0.09607885032892227 0.06000000238418579
  vertex 0.020000001415610313 -0.09607885032892227 0.06000000238418579
  vertex 0.020000001415610313 -0.06000000238418579 0.09607885032892227
 endloop
endfacet
facet normal 0.0 -0.70710688829422 0.7071067094802856
 outer loop
  vertex -0.020000001415610313 -0.09607885032892227 0.06000000238418579
  vertex 0.020000001415610313 -0.06000000238418579 0.09607885032892227
  vertex -0.020000001415610313 -0.06000000238418579 0.09607885032892227
 endloop
endfacet
facet normal 0.0 -0.8718588948249817 0.4897572994232178
 outer loop
  vertex 0.020000001415610313 -0.10000000894069672 0.05301959067583084
  vertex 0.020000001415610313 -0.09607885032892227 0.06000000238418579
  vertex -0.020000001415610313 -0.09607885032892227 0.06000000238418579
 endloop
endfacet
facet normal 0.0 -0.8718600273132324 0.4897550344467163
 outer loop
  vertex 0.020000001415610313 -0.10000000894069672 0.05301959067583084
  vertex -0.020000001415610313 -0.09607885032892227 0.06000000238418579
  vertex -0.020000001415610313 -0.10000000894069672 0.05301959067583084
 endloop
endfacet
facet normal 0.0 -0.9442672729492188 0.32917970418930054
 outer loop
  vertex -0.020000001415610313 -0.11151093989610672 0.020000001415610313
  vertex 0.020000001415610313 -0.11151093989610672 0.020000001415610313
  vertex 0.020000001415610313 -0.10000000894069672 0.05301959067583084
 endloop
endfacet
facet normal 0.0 -0.9442670941352844 0.3291803300380707
 outer loop
  vertex -0.020000001415610313 -0.11151093989610672 0.020000001415610313
  vertex 0.020000001415610313 -0.10000000894069672 0.05301959067583084
  vertex -0.020000001415610313 -0.10000000894069672 0.05301959067583084
 endloop
endfacet
facet normal 0.0 -1.0 0.0
 outer loop
  vertex 0.020000001415610313 -0.11151093989610672 -0.020000001415610313
  vertex 0.020000001415610313 -0.11151093989610672 0.020000001415610313
  vertex -0.020000001415610313 -0.11151093989610672 0.020000001415610313
 endloop
endfacet
facet normal 0.0 -1.0 0.0
 outer loop
  vertex 0.020000001415610313 -0.11151093989610672 -0.020000001415610313
  vertex -0.020000001415610313 -0.11151093989610672 0.020000001415610313
  vertex -0.020000001415610313 -0.11151093989610672 -0.020000001415610313
 endloop
endfacet
facet normal 0.0 -0.9442672729492188 -0.32917970418930054
 outer loop
  vertex 0.020000001415610313 -0.10000000894069672 -0.05301959067583084
  vertex 0.020000001415610313 -0.11151093989610672 -0.020000001415610313
  vertex -0.020000001415610313 -0.11151093989610672 -0.020000001415610313
 endloop
endfacet
facet normal 0.0 -0.9442670941352844 -0.3291803300380707
 outer loop
  vertex 0.020000001415610313 -0.10000000894069672 -0.05301959067583084
  vertex -0.020000001415610313 -0.11151093989610672 -0.020000001415610313
  vertex -0.020000001415610313 -0.10000000894069672 -0.05301959067583084
 endloop
endfacet
facet normal 0.0 -0.8718588948249817 -0.4897572994232178
 outer loop
  vertex -0.020000001415610313 -0.09607885032892227 -0.06000000238418579
  vertex 0.020000001415610313 -0.09607885032892227 -0.06000000238418579
  vertex 0.020000001415610313 -0.10000000894069672 -0.05301959067583084
 endloop
endfacet
facet normal 0.0 -0.8718600273132324 -0.4897550344467163
 outer loop
  vertex -0.020000001415610313 -0.09607885032892227 -0.06000000238418579
  vertex 0.020000001415610313 -0.10000000894069672 -0.05301959067583084
  vertex -0.020000001415610313 -0.10000000894069672 -0.05301959067583084
 endloop
endfacet
facet normal 0.0 -0.7071067690849304 -0.7071068286895752
 outer loop
  vertex 0.020000001415610313 -0.06000000238418579 -0.09607885032892227
  vertex 0.020000001415610313 -0.09607885032892227 -0.06000000238418579
  vertex -0.020000001415610313 -0.09607885032892227 -0.06000000238418579
 endloop
endfacet
facet normal 0.0 -0.70710688829422 -0.7071067094802856
 outer loop
  vertex 0.020000001415610313 -0.06000000238418579 -0.09607885032892227
  vertex -0.020000001415610313 -0.09607885032892227 -0.06000000238418579
  vertex -0.020000001415610313 -0.06000000238418579 -0.09607885032892227
 endloop
endfacet
facet normal 0.0 -0.4897559881210327 -0.8718594908714294
 outer loop
  vertex -0.020000001415610313 -0.05301959067583084 -0.10000000894069672
  vertex 0.020000001415610313 -0.05301959067583084 -0.10000000894069672
  vertex 0.020000001415610313 -0.06000000238418579 -0.09607885032892227
 endloop
endfacet
facet normal 0.0 -0.4897559881210327 -0.8718594908714294
 outer loop
  vertex -0.020000001415610313 -0.05301959067583084 -0.10000000894069672
  vertex 0.020000001415610313 -0.06000000238418579 -0.09607885032892227
  vertex -0.020000001415610313 -0.06000000238418579 -0.09607885032892227
 endloop
endfacet
facet normal 0.0 -0.32918018102645874 -0.9442670941352844
 outer loop
  vertex 0.020000001415610313 -0.020000001415610313 -0.11151093989610672
  vertex 0.020000001415610313 -0.05301959067583084 -0.10000000894069672
  vertex -0.020000001415610313 -0.05301959067583084 -0.10000000894069672
 endloop
endfacet
facet normal 0.0 -0.3291800916194916 -0.9442670941352844
 outer loop
  vertex 0.020000001415610313 -0.020000001415610313 -0.11151093989610672
  vertex -0.020000001415610313 -0.05301959067583084 -0.10000000894069672
  vertex -0.020000001415610313 -0.020000001415610313 -0.11151093989610672
 endloop
endfacet
facet normal 0.0 0.0 -1.0
 outer loop
  vertex -0.020000001415610313 0.020000001415610313 -0.11151093989610672
  vertex 0.020000001415610313 0.020000001415610313 -0.11151093989610672
  vertex 0.020000001415610313 -0.020000001415610313 -0.11151093989610672
 endloop
endfacet
facet normal 0.0 0.0 -1.0
 outer loop
  vertex -0.020000001415610313 0.020000001415610313 -0.11151093989610672
  vertex 0.020000001415610313 -0.020000001415610313 -0.11151093989610672
  vertex -0.020000001415610313 -0.020000001415610313 -0.11151093989610672
 endloop
endfacet
facet normal 0.0 0.32918018102645874 -0.9442670941352844
 outer loop
  vertex -0.020000001415610313 0.05301959067583084 -0.10000000894069672
  vertex 0.020000001415610313 0.05301959067583084 -0.10000000894069672
  vertex 0.020000001415610313 0.020000001415610313 -0.11151093989610672
 endloop
endfacet
facet normal 0.0 0.3291800916194916 -0.9442670941352844
 outer loop
  vertex -0.020000001415610313 0.05301959067583084 -0.10000000894069672
  vertex 0.020000001415610313 0.020000001415610313 -0.11151093989610672
  vertex -0.020000001415610313 0.020000001415610313 -0.11151093989610672
 endloop
endfacet
facet normal 0.0 0.4897559881210327 -0.8718594908714294
 outer loop
  vertex 0.020000001415610313 0.06000000238418579 -0.09607885032892227
  vertex 0.020000001415610313 0.05301959067583084 -0.10000000894069672
  vertex -0.020000001415610313 0.05301959067583084 -0.10000000894069672
 endloop
endfacet
facet normal 0.0 0.4897559881210327 -0.8718594908714294
 outer loop
  vertex 0.020000001415610313 0.06000000238418579 -0.09607885032892227
  vertex -0.020000001415610313 0.05301959067583084 -0.10000000894069672
  vertex -0.020000001415610313 0.06000000238418579 -0.09607885032892227
 endloop
endfacet
facet normal 0.0 0.7071067690849304 -0.7071068286895752
 outer loop
  vertex -0.020000001415610313 0.09607885032892227 -0.06000000238418579
  vertex 0.020000001415610313 0.09607885032892227 -0.06000000238418579
  vertex 0.020000001415610313 0.06000000238418579 -0.09607885032892227
 endloop
endfacet
facet normal 0.0 0.70710688829422 -0.7071067094802856
 outer loop
  vertex -0.020000001415610313 0.09607885032892227 -0.06000000238418579
  vertex 0.020000001415610313 0.06000000238418579 -0.09607885032892227
  vertex -0.020000001415610313 0.06000000238418579 -0.09607885032892227
 endloop
endfacet
facet normal 0.0 0.8718588948249817 -0.4897572994232178
 outer loop
  vertex 0.020000001415610313 0.10000000894069672 -0.05301959067583084
  vertex 0.020000001415610313 0.09607885032892227 -0.06000000238418579
  vertex -0.020000001415610313 0.09607885032892227 -0.06000000238418579
 endloop
endfacet
facet normal 0.0 0.8718600273132324 -0.4897550344467163
 outer loop
  vertex 0.020000001415610313 0.10000000894069672 -0.05301959067583084
  vertex -0.020000001415610313 0.09607885032892227 -0.06000000238418579
  vertex -0.020000001415610313 0.10000000894069672 -0.05301959067583084
 endloop
endfacet
facet normal 0.0 0.9442672729492188 -0.32917970418930054
 outer loop
  vertex -0.020000001415610313 0.11151093989610672 -0.020000001415610313
  vertex 0.020000001415610313 0.11151093989610672 -0.020000001415610313
  vertex 0.020000001415610313 0.10000000894069672 -0.05301959067583084
 endloop
endfacet
facet normal 0.0 0.9442670941352844 -0.3291803300380707
 outer loop
  vertex -0.020000001415610313 0.11151093989610672 -0.020000001415610313
  vertex 0.020000001415610313 0.10000000894069672 -0.05301959067583084
  vertex -0.020000001415610313 0.10000000894069672 -0.05301959067583084
 endloop
endfacet
facet normal 0.0 1.0 0.0
 outer loop
  vertex -0.020000001415610313 0.11151093989610672 0.020000001415610313
  vertex 0.020000001415610313 0.11151093989610672 0.020000001415610313
  vertex 0.020000001415610313 0.11151093989610672 -0.020000001415610313
 endloop
endfacet
facet normal 0.0 1.0 0.0
 outer loop
  vertex -0.020000001415610313 0.11151093989610672 0.020000001415610313
  vertex 0.020000001415610313 0.11151093989610672 -0.020000001415610313
  vertex -0.020000001415610313 0.11151093989610672 -0.020000001415610313
 endloop
endfacet
facet normal 0.0 0.9442672729492188 0.32917970418930054
 outer loop
  vertex 0.020000001415610313 0.10000000894069672 0.05301959067583084
  vertex 0.020000001415610313 0.11151093989610672 0.020000001415610313
  vertex -0.020000001415610313 0.11151093989610672 0.020000001415610313
 endloop
endfacet
facet normal 0.0 0.9442670941352844 0.3291803300380707
 outer loop
  vertex 0.020000001415610313 0.10000000894069672 0.05301959067583084
  vertex -0.020000001415610313 0.11151093989610672 0.020000001415610313
  vertex -0.020000001415610313 0.10000000894069672 0.05301959067583084
 endloop
endfacet
facet normal 0.0 0.8718588948249817 0.4897572994232178
 outer loop
  vertex -0.020000001415610313 0.09607885032892227 0.06000000238418579
  vertex 0.020000001415610313 0.09607885032892227 0.06000000238418579
  vertex 0.020000001415610313 0.10000000894069672 0.05301959067583084
 endloop
endfacet
facet normal 0.0 0.8718600273132324 0.4897550344467163
 outer loop
  vertex -0.020000001415610313 0.09607885032892227 0.06000000238418579
  vertex 0.020000001415610313 0.10000000894069672 0.05301959067583084
  vertex -0.020000001415610313 0.10000000894069672 0.05301959067583084
 endloop
endfacet
facet normal 0.0 0.7071067690849304 0.7071068286895752
 outer loop
  vertex 0.020000001415610313 0.06000000238418579 0.09607885032892227
  vertex 0.020000001415610313 0.09607885032892227 0.06000000238418579
  vertex -0.020000001415610313 0.09607885032892227 0.06000000238418579
 endloop
endfacet
facet normal 0.0 0.70710688829422 0.7071067094802856
 outer loop
  vertex 0.020000001415610313 0.06000000238418579 0.09607885032892227
  vertex -0.020000001415610313 0.09607885032892227 0.06000000238418579
  vertex -0.020000001415610313 0.06000000238418579 0.09607885032892227
 endloop
endfacet
facet normal 0.0 0.4897559881210327 0.8718594908714294
 outer loop
  vertex -0.020000001415610313 0.05301959067583084 0.10000000894069672
  vertex 0.020000001415610313 0.05301959067583084 0.10000000894069672
  vertex 0.020000001415610313 0.06000000238418579 0.09607885032892227
 endloop
endfacet
facet normal 0.0 0.4897559881210327 0.8718594908714294
 outer loop
  vertex -0.020000001415610313 0.05301959067583084 0.10000000894069672
  vertex 0.020000001415610313 0.06000000238418579 0.09607885032892227
  vertex -0.020000001415610313 0.06000000238418579 0.09607885032892227
 endloop
endfacet
facet normal 0.0 0.32918018102645874 0.9442670941352844
 outer loop
  vertex 0.020000001415610313 0.020000001415610313 0.11151093989610672
  vertex 0.020000001415610313 0.05301959067583084 0.10000000894069672
  vertex -0.020000001415610313 0.05301959067583084 0.10000000894069672
 endloop
endfacet
facet normal 0.0 0.3291800916194916 0.9442670941352844
 outer loop
  vertex 0.020000001415610313 0.020000001415610313 0.11151093989610672
  vertex -0.020000001415610313 0.05301959067583084 0.10000000894069672
  vertex -0.020000001415610313 0.020000001415610313 0.11151093989610672
 endloop
endfacet
facet normal -0.3126751482486725 0.3126751482486725 0.8969216346740723
 outer loop
  vertex -0.020000001415610313 0.05301959067583084 0.10000000894069672
  vertex -0.05301959067583084 0.020000001415610313 0.10000000894069672
  vertex -0.020000001415610313 0.020000001415610313 0.11151093989610672
 endloop
endfacet
facet normal -0.3291803300380707 0.0 0.9442670941352844
 outer loop
  vertex -0.020000001415610313 0.020000001415610313 0.11151093989610672
  vertex -0.05301959067583084 0.020000001415610313 0.10000000894069672
  vertex -0.05301959067583084 -0.020000001415610313 0.10000000894069672
 endloop
endfacet
facet normal -0.32917970418930054 0.0 0.9442672729492188
 outer loop
  vertex -0.020000001415610313 0.020000001415610313 0.11151093989610672
  vertex -0.05301959067583084 -0.020000001415610313 0.10000000894069672
  vertex -0.020000001415610313 -0.020000001415610313 0.11151093989610672
 endloop
endfacet
facet normal -0.4897550344467163 0.0 0.8718600273132324
 outer loop
  vertex -0.05301959067583084 -0.020000001415610313 0.10000000894069672
  vertex -0.05301959067583084 0.020000001415610313 0.10000000894069672
  vertex -0.06000000238418579 0.020000001415610313 0.09607885032892227
 endloop
endfacet
facet normal -0.4897572994232178 0.0 0.8718588948249817
 outer loop
  vertex -0.05301959067583084 -0.020000001415610313 0.10000000894069672
  vertex -0.06000000238418579 0.020000001415610313 0.09607885032892227
  vertex -0.06000000238418579 -0.020000001415610313 0.09607885032892227
 endloop
endfacet
facet normal -0.7071067094802856 0.0 0.70710688829422
 outer loop
  vertex -0.06000000238418579 0.020000001415610313 0.09607885032892227
  vertex -0.09607885032892227 0.020000001415610313 0.06000000238418579
  vertex -0.09607885032892227 -0.020000001415610313 0.06000000238418579
 endloop
endfacet
facet normal -0.7071068286895752 0.0 0.7071067690849304
 outer loop
  vertex -0.06000000238418579 0.020000001415610313 0.09607885032892227
  vertex -0.09607885032892227 -0.020000001415610313 0.06000000238418579
  vertex -0.06000000238418579 -0.020000001415610313 0.09607885032892227
 endloop
endfacet
facet normal -0.8718594908714294 0.0 0.4897559881210327
 outer loop
  vertex -0.09607885032892227 -0.020000001415610313 0.06000000238418579
  vertex -0.09607885032892227 0.020000001415610313 0.06000000238418579
  vertex -0.10000000894069672 0.020000001415610313 0.05301959067583084
 endloop
endfacet
facet normal -0.8718594908714294 0.0 0.4897559881210327
 outer loop
  vertex -0.09607885032892227 -0.020000001415610313 0.06000000238418579
  vertex -0.10000000894069672 0.020000001415610313 0.05301959067583084
  vertex -0.10000000894069672 -0.020000001415610313 0.05301959067583084
 endloop
endfacet
facet normal -0.8086519241333008 0.4542514681816101 0.3738148510456085
 outer loop
  vertex -0.0775880515575409 0.06000000238418579 0.06000000238418579
  vertex -0.09607885032892227 0.06000000238418579 0.020000001415610313
  vertex -0.10000000894069672 0.05301959067583084 0.020000001415610313
 endloop
endfacet
facet normal -0.8289834856987 0.3954657316207886 0.39546579122543335
 outer loop
  vertex -0.0775880515575409 0.06000000238418579 0.06000000238418579
  vertex -0.10000000894069672 0.05301959067583084 0.020000001415610313
  vertex -0.10000000894069672 0.020000001415610313 0.05301959067583084
 endloop
endfacet
facet normal -0.8086522817611694 0.3738158941268921 0.45425015687942505
 outer loop
  vertex -0.09607885032892227 0.020000001415610313 0.06000000238418579
  vertex -0.0775880515575409 0.06000000238418579 0.06000000238418579
  vertex -0.10000000894069672 0.020000001415610313 0.05301959067583084
 endloop
endfacet
facet normal -0.8718588948249817 0.4897572994232178 0.0
 outer loop
  vertex -0.10000000894069672 0.05301959067583084 0.020000001415610313
  vertex -0.09607885032892227 0.06000000238418579 0.020000001415610313
  vertex -0.09607885032892227 0.06000000238418579 -0.020000001415610313
 endloop
endfacet
facet normal -0.8718600273132324 0.4897550344467163 0.0
 outer loop
  vertex -0.10000000894069672 0.05301959067583084 0.020000001415610313
  vertex -0.09607885032892227 0.06000000238418579 -0.020000001415610313
  vertex -0.10000000894069672 0.05301959067583084 -0.020000001415610313
 endloop
endfacet
facet normal -0.8370070457458496 0.38692334294319153 -0.3869231343269348
 outer loop
  vertex -0.09607885032892227 0.06000000238418579 -0.020000001415610313
  vertex -0.0775880515575409 0.06000000238418579 -0.06000000238418579
  vertex -0.09607885032892227 0.020000001415610313 -0.06000000238418579
 endloop
endfacet
facet normal -0.7829964756965637 0.439839631319046 -0.4398382902145386
 outer loop
  vertex -0.09607885032892227 0.06000000238418579 -0.020000001415610313
  vertex -0.09607885032892227 0.020000001415610313 -0.06000000238418579
  vertex -0.10000000894069672 0.020000001415610313 -0.05301959067583084
 endloop
endfacet
facet normal -0.7829968929290771 0.4398380219936371 -0.43983888626098633
 outer loop
  vertex -0.10000000894069672 0.05301959067583084 -0.020000001415610313
  vertex -0.09607885032892227 0.06000000238418579 -0.020000001415610313
  vertex -0.10000000894069672 0.020000001415610313 -0.05301959067583084
 endloop
endfacet
facet normal -0.6721115708351135 0.6721112132072449 -0.3106970191001892
 outer loop
  vertex -0.0775880515575409 0.06000000238418579 -0.06000000238418579
  vertex -0.09607885032892227 0.06000000238418579 -0.020000001415610313
  vertex -0.06000000238418579 0.09607885032892227 -0.020000001415610313
 endloop
endfacet
facet normal -0.6721113324165344 0.672111451625824 -0.3106967508792877
 outer loop
  vertex -0.0775880515575409 0.06000000238418579 -0.06000000238418579
  vertex -0.06000000238418579 0.09607885032892227 -0.020000001415610313
  vertex -0.06000000238418579 0.0775880515575409 -0.06000000238418579
 endloop
endfacet
facet normal -0.5773502588272095 0.5773502588272095 -0.5773502588272095
 outer loop
  vertex -0.0775880515575409 0.06000000238418579 -0.06000000238418579
  vertex -0.06000000238418579 0.0775880515575409 -0.06000000238418579
  vertex -0.06000000238418579 0.06000000238418579 -0.0775880515575409
 endloop
endfacet
facet normal -0.8718594908714294 0.0 -0.4897559881210327
 outer loop
  vertex -0.10000000894069672 0.020000001415610313 -0.05301959067583084
  vertex -0.09607885032892227 0.020000001415610313 -0.06000000238418579
  vertex -0.09607885032892227 -0.020000001415610313 -0.06000000238418579
 endloop
endfacet
facet normal -0.8718594908714294 0.0 -0.4897559881210327
 outer loop
  vertex -0.10000000894069672 0.020000001415610313 -0.05301959067583084
  vertex -0.09607885032892227 -0.020000001415610313 -0.06000000238418579
  vertex -0.10000000894069672 -0.020000001415610313 -0.05301959067583084
 endloop
endfacet
facet normal -0.7071067094802856 0.0 -0.70710688829422
 outer loop
  vertex -0.09607885032892227 -0.020000001415610313 -0.06000000238418579
  vertex -0.09607885032892227 0.020000001415610313 -0.06000000238418579
  vertex -0.06000000238418579 0.020000001415610313 -0.09607885032892227
 endloop
endfacet
facet normal -0.7071068286895752 0.0 -0.7071067690849304
 outer loop
  vertex -0.09607885032892227 -0.020000001415610313 -0.06000000238418579
  vertex -0.06000000238418579 0.020000001415610313 -0.09607885032892227
  vertex -0.06000000238418579 -0.020000001415610313 -0.09607885032892227
 endloop
endfacet
facet normal -0.6721112132072449 -0.3106968402862549 -0.6721115112304688
 outer loop
  vertex -0.0775880515575409 -0.06000000238418579 -0.06000000238418579
  vertex -0.09607885032892227 -0.020000001415610313 -0.06000000238418579
  vertex -0.06000000238418579 -0.020000001415610313 -0.09607885032892227
 endloop
endfacet
facet normal -0.6721112728118896 -0.31069713830947876 -0.6721112728118896
 outer loop
  vertex -0.0775880515575409 -0.06000000238418579 -0.06000000238418579
  vertex -0.06000000238418579 -0.020000001415610313 -0.09607885032892227
  vertex -0.06000000238418579 -0.06000000238418579 -0.0775880515575409
 endloop
endfacet
facet normal -0.4897550344467163 0.0 -0.8718600273132324
 outer loop
  vertex -0.06000000238418579 0.020000001415610313 -0.09607885032892227
  vertex -0.05301959067583084 0.020000001415610313 -0.10000000894069672
  vertex -0.05301959067583084 -0.020000001415610313 -0.10000000894069672
 endloop
endfacet
facet normal -0.4897572994232178 0.0 -0.8718588948249817
 outer loop
  vertex -0.06000000238418579 0.020000001415610313 -0.09607885032892227
  vertex -0.05301959067583084 -0.020000001415610313 -0.10000000894069672
  vertex -0.06000000238418579 -0.020000001415610313 -0.09607885032892227
 endloop
endfacet
facet normal -0.8086519241333008 -0.4542514681816101 -0.3738148510456085
 outer loop
  vertex -0.0775880515575409 -0.06000000238418579 -0.06000000238418579
  vertex -0.09607885032892227 -0.06000000238418579 -0.020000001415610313
  vertex -0.10000000894069672 -0.05301959067583084 -0.020000001415610313
 endloop
endfacet
facet normal -0.8289834856987 -0.3954657316207886 -0.39546579122543335
 outer loop
  vertex -0.0775880515575409 -0.06000000238418579 -0.06000000238418579
  vertex -0.10000000894069672 -0.05301959067583084 -0.020000001415610313
  vertex -0.10000000894069672 -0.020000001415610313 -0.05301959067583084
 endloop
endfacet
facet normal -0.8086522817611694 -0.3738158941268921 -0.45425015687942505
 outer loop
  vertex -0.09607885032892227 -0.020000001415610313 -0.06000000238418579
  vertex -0.0775880515575409 -0.06000000238418579 -0.06000000238418579
  vertex -0.10000000894069672 -0.020000001415610313 -0.05301959067583084
 endloop
endfacet
facet normal -0.8718588948249817 -0.4897572994232178 0.0
 outer loop
  vertex -0.09607885032892227 -0.06000000238418579 -0.020000001415610313
  vertex -0.09607885032892227 -0.06000000238418579 0.020000001415610313
  vertex -0.10000000894069672 -0.05301959067583084 0.020000001415610313
 endloop
endfacet
facet normal -0.8718600273132324 -0.4897550344467163 0.0
 outer loop
  vertex -0.09607885032892227 -0.06000000238418579 -0.020000001415610313
  vertex -0.10000000894069672 -0.05301959067583084 0.020000001415610313
  vertex -0.10000000894069672 -0.05301959067583084 -0.020000001415610313
 endloop
endfacet
facet normal -0.7071067690849304 -0.7071068286895752 0.0
 outer loop
  vertex -0.06000000238418579 -0.09607885032892227 0.020000001415610313
  vertex -0.09607885032892227 -0.06000000238418579 0.020000001415610313
  vertex -0.09607885032892227 -0.06000000238418579 -0.020000001415610313
 endloop
endfacet
facet normal -0.70710688829422 -0.7071067094802856 0.0
 outer loop
  vertex -0.06000000238418579 -0.09607885032892227 0.020000001415610313
  vertex -0.09607885032892227 -0.06000000238418579 -0.020000001415610313
  vertex -0.06000000238418579 -0.09607885032892227 -0.020000001415610313
 endloop
endfacet
facet normal -0.4897559881210327 -0.8718594908714294 0.0
 outer loop
  vertex -0.05301959067583084 -0.10000000894069672 -0.020000001415610313
  vertex -0.05301959067583084 -0.10000000894069672 0.020000001415610313
  vertex -0.06000000238418579 -0.09607885032892227 0.020000001415610313
 endloop
endfacet
facet normal -0.4897559881210327 -0.8718594908714294 0.0
 outer loop
  vertex -0.05301959067583084 -0.10000000894069672 -0.020000001415610313
  vertex -0.06000000238418579 -0.09607885032892227 0.020000001415610313
  vertex -0.06000000238418579 -0.09607885032892227 -0.020000001415610313
 endloop
endfacet
facet normal -0.9442672729492188 -0.32917970418930054 0.0
 outer loop
  vertex -0.10000000894069672 -0.05301959067583084 0.020000001415610313
  vertex -0.11151093989610672 -0.020000001415610313 0.020000001415610313
  vertex -0.11151093989610672 -0.020000001415610313 -0.020000001415610313
 endloop
endfacet
facet normal -0.9442670941352844 -0.3291803300380707 0.0
 outer loop
  vertex -0.10000000894069672 -0.05301959067583084 0.020000001415610313
  vertex -0.11151093989610672 -0.020000001415610313 -0.020000001415610313
  vertex -0.10000000894069672 -0.05301959067583084 -0.020000001415610313
 endloop
endfacet
facet normal -0.8969216346740723 -0.3126751482486725 0.3126751482486725
 outer loop
  vertex -0.11151093989610672 -0.020000001415610313 0.020000001415610313
  vertex -0.10000000894069672 -0.05301959067583084 0.020000001415610313
  vertex -0.10000000894069672 -0.020000001415610313 0.05301959067583084
 endloop
endfacet
facet normal -1.0 0.0 0.0
 outer loop
  vertex -0.11151093989610672 -0.020000001415610313 0.020000001415610313
  vertex -0.11151093989610672 0.020000001415610313 0.020000001415610313
  vertex -0.11151093989610672 0.020000001415610313 -0.020000001415610313
 endloop
endfacet
facet normal -1.0 0.0 0.0
 outer loop
  vertex -0.11151093989610672 -0.020000001415610313 0.020000001415610313
  vertex -0.11151093989610672 0.020000001415610313 -0.020000001415610313
  vertex -0.11151093989610672 -0.020000001415610313 -0.020000001415610313
 endloop
endfacet
facet normal -0.6721115708351135 -0.6721112132072449 -0.3106970191001892
 outer loop
  vertex -0.06000000238418579 -0.09607885032892227 -0.020000001415610313
  vertex -0.09607885032892227 -0.06000000238418579 -0.020000001415610313
  vertex -0.0775880515575409 -0.06000000238418579 -0.06000000238418579
 endloop
endfacet
facet normal -0.6721113324165344 -0.672111451625824 -0.3106967508792877
 outer loop
  vertex -0.06000000238418579 -0.09607885032892227 -0.020000001415610313
  vertex -0.0775880515575409 -0.06000000238418579 -0.06000000238418579
  vertex -0.06000000238418579 -0.0775880515575409 -0.06000000238418579
 endloop
endfacet
facet normal -0.8969216346740723 -0.3126751482486725 -0.3126751482486725
 outer loop
  vertex -0.10000000894069672 -0.05301959067583084 -0.020000001415610313
  vertex -0.11151093989610672 -0.020000001415610313 -0.020000001415610313
  vertex -0.10000000894069672 -0.020000001415610313 -0.05301959067583084
 endloop
endfacet
facet normal -0.9442670941352844 0.0 -0.3291800916194916
 outer loop
  vertex -0.11151093989610672 -0.020000001415610313 -0.020000001415610313
  vertex -0.11151093989610672 0.020000001415610313 -0.020000001415610313
  vertex -0.10000000894069672 0.020000001415610313 -0.05301959067583084
 endloop
endfacet
facet normal -0.9442670941352844 0.0 -0.32918018102645874
 outer loop
  vertex -0.11151093989610672 -0.020000001415610313 -0.020000001415610313
  vertex -0.10000000894069672 0.020000001415610313 -0.05301959067583084
  vertex -0.10000000894069672 -0.020000001415610313 -0.05301959067583084
 endloop
endfacet
facet normal -0.8969216346740723 0.3126751482486725 -0.3126751482486725
 outer loop
  vertex -0.11151093989610672 0.020000001415610313 -0.020000001415610313
  vertex -0.10000000894069672 0.05301959067583084 -0.020000001415610313
  vertex -0.10000000894069672 0.020000001415610313 -0.05301959067583084
 endloop
endfacet
facet normal -0.7071067690849304 0.7071068286895752 0.0
 outer loop
  vertex -0.09607885032892227 0.06000000238418579 -0.020000001415610313
  vertex -0.09607885032892227 0.06000000238418579 0.020000001415610313
  vertex -0.06000000238418579 0.09607885032892227 0.020000001415610313
 endloop
endfacet
facet normal -0.70710688829422 0.7071067094802856 0.0
 outer loop
  vertex -0.09607885032892227 0.06000000238418579 -0.020000001415610313
  vertex -0.06000000238418579 0.09607885032892227 0.020000001415610313
  vertex -0.06000000238418579 0.09607885032892227 -0.020000001415610313
 endloop
endfacet
facet normal -0.4897559881210327 0.8718594908714294 0.0
 outer loop
  vertex -0.06000000238418579 0.09607885032892227 0.020000001415610313
  vertex -0.05301959067583084 0.10000000894069672 0.020000001415610313
  vertex -0.05301959067583084 0.10000000894069672 -0.020000001415610313
 endloop
endfacet
facet normal -0.4897559881210327 0.8718594908714294 0.0
 outer loop
  vertex -0.06000000238418579 0.09607885032892227 0.020000001415610313
  vertex -0.05301959067583084 0.10000000894069672 -0.020000001415610313
  vertex -0.06000000238418579 0.09607885032892227 -0.020000001415610313
 endloop
endfacet
facet normal -0.9442672729492188 0.32917970418930054 0.0
 outer loop
  vertex -0.11151093989610672 0.020000001415610313 -0.020000001415610313
  vertex -0.11151093989610672 0.020000001415610313 0.020000001415610313
  vertex -0.10000000894069672 0.05301959067583084 0.020000001415610313
 endloop
endfacet
facet normal -0.9442670941352844 0.3291803300380707 0.0
 outer loop
  vertex -0.11151093989610672 0.020000001415610313 -0.020000001415610313
  vertex -0.10000000894069672 0.05301959067583084 0.020000001415610313
  vertex -0.10000000894069672 0.05301959067583084 -0.020000001415610313
 endloop
endfacet
facet normal -0.6721112728118896 0.6721112728118896 0.31069713830947876
 outer loop
  vertex -0.09607885032892227 0.06000000238418579 0.020000001415610313
  vertex -0.0775880515575409 0.06000000238418579 0.06000000238418579
  vertex -0.06000000238418579 0.0775880515575409 0.06000000238418579
 endloop
endfacet
facet normal -0.6721115708351135 0.6721112132072449 0.3106968402862549
 outer loop
  vertex -0.09607885032892227 0.06000000238418579 0.020000001415610313
  vertex -0.06000000238418579 0.0775880515575409 0.06000000238418579
  vertex -0.06000000238418579 0.09607885032892227 0.020000001415610313
 endloop
endfacet
facet normal -0.5773502588272095 0.5773502588272095 0.5773502588272095
 outer loop
  vertex -0.06000000238418579 0.0775880515575409 0.06000000238418579
  vertex -0.0775880515575409 0.06000000238418579 0.06000000238418579
  vertex -0.06000000238418579 0.06000000238418579 0.0775880515575409
 endloop
endfacet
facet normal -0.8370070457458496 -0.38692334294319153 0.3869231343269348
 outer loop
  vertex -0.09607885032892227 -0.06000000238418579 0.020000001415610313
  vertex -0.0775880515575409 -0.06000000238418579 0.06000000238418579
  vertex -0.09607885032892227 -0.020000001415610313 0.06000000238418579
 endloop
endfacet
facet normal -0.7829964756965637 -0.439839631319046 0.4398382902145386
 outer loop
  vertex -0.09607885032892227 -0.06000000238418579 0.020000001415610313
  vertex -0.09607885032892227 -0.020000001415610313 0.06000000238418579
  vertex -0.10000000894069672 -0.020000001415610313 0.05301959067583084
 endloop
endfacet
facet normal -0.7829968929290771 -0.4398380219936371 0.43983888626098633
 outer loop
  vertex -0.10000000894069672 -0.05301959067583084 0.020000001415610313
  vertex -0.09607885032892227 -0.06000000238418579 0.020000001415610313
  vertex -0.10000000894069672 -0.020000001415610313 0.05301959067583084
 endloop
endfacet
facet normal -0.9442670941352844 0.0 0.3291800916194916
 outer loop
  vertex -0.10000000894069672 0.020000001415610313 0.05301959067583084
  vertex -0.11151093989610672 0.020000001415610313 0.020000001415610313
  vertex -0.11151093989610672 -0.020000001415610313 0.020000001415610313
 endloop
endfacet
facet normal -0.9442670941352844 0.0 0.32918018102645874
 outer loop
  vertex -0.10000000894069672 0.020000001415610313 0.05301959067583084
  vertex -0.11151093989610672 -0.020000001415610313 0.020000001415610313
  vertex -0.10000000894069672 -0.020000001415610313 0.05301959067583084
 endloop
endfacet
facet normal -0.672111451625824 0.3106967508792877 0.6721113324165344
 outer loop
  vertex -0.06000000238418579 0.06000000238418579 0.0775880515575409
  vertex -0.0775880515575409 0.06000000238418579 0.06000000238418579
  vertex -0.09607885032892227 0.020000001415610313 0.06000000238418579
 endloop
endfacet
facet normal -0.6721112132072449 0.3106970191001892 0.6721115708351135
 outer loop
  vertex -0.06000000238418579 0.06000000238418579 0.0775880515575409
  vertex -0.09607885032892227 0.020000001415610313 0.06000000238418579
  vertex -0.06000000238418579 0.020000001415610313 0.09607885032892227
 endloop
endfacet
facet normal -0.6721112132072449 -0.3106968402862549 0.6721115708351135
 outer loop
  vertex -0.06000000238418579 -0.020000001415610313 0.09607885032892227
  vertex -0.09607885032892227 -0.020000001415610313 0.06000000238418579
  vertex -0.0775880515575409 -0.06000000238418579 0.06000000238418579
 endloop
endfacet
facet normal -0.6721112728118896 -0.31069713830947876 0.6721112728118896
 outer loop
  vertex -0.06000000238418579 -0.020000001415610313 0.09607885032892227
  vertex -0.0775880515575409 -0.06000000238418579 0.06000000238418579
  vertex -0.06000000238418579 -0.06000000238418579 0.0775880515575409
 endloop
endfacet
facet normal -0.5773502588272095 -0.5773502588272095 0.5773502588272095
 outer loop
  vertex -0.0775880515575409 -0.06000000238418579 0.06000000238418579
  vertex -0.06000000238418579 -0.0775880515575409 0.06000000238418579
  vertex -0.06000000238418579 -0.06000000238418579 0.0775880515575409
 endloop
endfacet
facet normal -0.3126751482486725 0.8969216346740723 0.3126751482486725
 outer loop
  vertex -0.020000001415610313 0.11151093989610672 0.020000001415610313
  vertex -0.05301959067583084 0.10000000894069672 0.020000001415610313
  vertex -0.020000001415610313 0.10000000894069672 0.05301959067583084
 endloop
endfacet
facet normal 0.32918018102645874 0.9442670941352844 0.0
 outer loop
  vertex 0.020000001415610313 0.11151093989610672 0.020000001415610313
  vertex 0.05301959067583084 0.10000000894069672 0.020000001415610313
  vertex 0.05301959067583084 0.10000000894069672 -0.020000001415610313
 endloop
endfacet
facet normal 0.3291800916194916 0.9442670941352844 0.0
 outer loop
  vertex 0.020000001415610313 0.11151093989610672 0.020000001415610313
  vertex 0.05301959067583084 0.10000000894069672 -0.020000001415610313
  vertex 0.020000001415610313 0.11151093989610672 -0.020000001415610313
 endloop
endfacet
facet normal -0.32918018102645874 0.9442670941352844 0.0
 outer loop
  vertex -0.05301959067583084 0.10000000894069672 -0.020000001415610313
  vertex -0.05301959067583084 0.10000000894069672 0.020000001415610313
  vertex -0.020000001415610313 0.11151093989610672 0.020000001415610313
 endloop
endfacet
facet normal -0.3291800916194916 0.9442670941352844 0.0
 outer loop
  vertex -0.05301959067583084 0.10000000894069672 -0.020000001415610313
  vertex -0.020000001415610313 0.11151093989610672 0.020000001415610313
  vertex -0.020000001415610313 0.11151093989610672 -0.020000001415610313
 endloop
endfacet
facet normal 0.3126751482486725 0.8969216346740723 -0.3126751482486725
 outer loop
  vertex 0.020000001415610313 0.11151093989610672 -0.020000001415610313
  vertex 0.05301959067583084 0.10000000894069672 -0.020000001415610313
  vertex 0.020000001415610313 0.10000000894069672 -0.05301959067583084
 endloop
endfacet
facet normal -0.3126751482486725 0.8969216346740723 -0.3126751482486725
 outer loop
  vertex -0.05301959067583084 0.10000000894069672 -0.020000001415610313
  vertex -0.020000001415610313 0.11151093989610672 -0.020000001415610313
  vertex -0.020000001415610313 0.10000000894069672 -0.05301959067583084
 endloop
endfacet
facet normal 0.31069713830947876 0.6721112728118896 -0.6721112728118896
 outer loop
  vertex 0.020000001415610313 0.09607885032892227 -0.06000000238418579
  vertex 0.06000000238418579 0.0775880515575409 -0.06000000238418579
  vertex 0.06000000238418579 0.06000000238418579 -0.0775880515575409
 endloop
endfacet
facet normal 0.3106968402862549 0.6721115708351135 -0.6721112132072449
 outer loop
  vertex 0.020000001415610313 0.09607885032892227 -0.06000000238418579
  vertex 0.06000000238418579 0.06000000238418579 -0.0775880515575409
  vertex 0.020000001415610313 0.06000000238418579 -0.09607885032892227
 endloop
endfacet
facet normal 0.5773502588272095 0.5773502588272095 -0.5773502588272095
 outer loop
  vertex 0.06000000238418579 0.0775880515575409 -0.06000000238418579
  vertex 0.0775880515575409 0.06000000238418579 -0.06000000238418579
  vertex 0.06000000238418579 0.06000000238418579 -0.0775880515575409
 endloop
endfacet
facet normal 0.672111451625824 0.3106967508792877 -0.6721113324165344
 outer loop
  vertex 0.06000000238418579 0.06000000238418579 -0.0775880515575409
  vertex 0.0775880515575409 0.06000000238418579 -0.06000000238418579
  vertex 0.09607885032892227 0.020000001415610313 -0.06000000238418579
 endloop
endfacet
facet normal 0.6721112132072449 0.3106970191001892 -0.6721115708351135
 outer loop
  vertex 0.06000000238418579 0.06000000238418579 -0.0775880515575409
  vertex 0.09607885032892227 0.020000001415610313 -0.06000000238418579
  vertex 0.06000000238418579 0.020000001415610313 -0.09607885032892227
 endloop
endfacet
facet normal 0.7071067094802856 0.0 -0.70710688829422
 outer loop
  vertex 0.06000000238418579 0.020000001415610313 -0.09607885032892227
  vertex 0.09607885032892227 0.020000001415610313 -0.06000000238418579
  vertex 0.09607885032892227 -0.020000001415610313 -0.06000000238418579
 endloop
endfacet
facet normal 0.7071068286895752 0.0 -0.7071067690849304
 outer loop
  vertex 0.06000000238418579 0.020000001415610313 -0.09607885032892227
  vertex 0.09607885032892227 -0.020000001415610313 -0.06000000238418579
  vertex 0.06000000238418579 -0.020000001415610313 -0.09607885032892227
 endloop
endfacet
facet normal 0.6721112132072449 -0.3106968402862549 -0.6721115708351135
 outer loop
  vertex 0.06000000238418579 -0.020000001415610313 -0.09607885032892227
  vertex 0.09607885032892227 -0.020000001415610313 -0.06000000238418579
  vertex 0.0775880515575409 -0.06000000238418579 -0.06000000238418579
 endloop
endfacet
facet normal 0.6721112728118896 -0.31069713830947876 -0.6721112728118896
 outer loop
  vertex 0.06000000238418579 -0.020000001415610313 -0.09607885032892227
  vertex 0.0775880515575409 -0.06000000238418579 -0.06000000238418579
  vertex 0.06000000238418579 -0.06000000238418579 -0.0775880515575409
 endloop
endfacet
facet normal 0.5773502588272095 -0.5773502588272095 -0.5773502588272095
 outer loop
  vertex 0.0775880515575409 -0.06000000238418579 -0.06000000238418579
  vertex 0.06000000238418579 -0.0775880515575409 -0.06000000238418579
  vertex 0.06000000238418579 -0.06000000238418579 -0.0775880515575409
 endloop
endfacet
facet normal 0.6721115708351135 -0.6721112132072449 -0.3106970191001892
 outer loop
  vertex 0.0775880515575409 -0.06000000238418579 -0.06000000238418579
  vertex 0.09607885032892227 -0.06000000238418579 -0.020000001415610313
  vertex 0.06000000238418579 -0.09607885032892227 -0.020000001415610313
 endloop
endfacet
facet normal 0.6721113324165344 -0.672111451625824 -0.3106967508792877
 outer loop
  vertex 0.0775880515575409 -0.06000000238418579 -0.06000000238418579
  vertex 0.06000000238418579 -0.09607885032892227 -0.020000001415610313
  vertex 0.06000000238418579 -0.0775880515575409 -0.06000000238418579
 endloop
endfacet
facet normal 0.7071067690849304 -0.7071068286895752 0.0
 outer loop
  vertex 0.09607885032892227 -0.06000000238418579 -0.020000001415610313
  vertex 0.09607885032892227 -0.06000000238418579 0.020000001415610313
  vertex 0.06000000238418579 -0.09607885032892227 0.020000001415610313
 endloop
endfacet
facet normal 0.70710688829422 -0.7071067094802856 0.0
 outer loop
  vertex 0.09607885032892227 -0.06000000238418579 -0.020000001415610313
  vertex 0.06000000238418579 -0.09607885032892227 0.020000001415610313
  vertex 0.06000000238418579 -0.09607885032892227 -0.020000001415610313
 endloop
endfacet
facet normal 0.6721112728118896 -0.6721112728118896 0.31069713830947876
 outer loop
  vertex 0.09607885032892227 -0.06000000238418579 0.020000001415610313
  vertex 0.0775880515575409 -0.06000000238418579 0.06000000238418579
  vertex 0.06000000238418579 -0.0775880515575409 0.06000000238418579
 endloop
endfacet
facet normal 0.6721115708351135 -0.6721112132072449 0.3106968402862549
 outer loop
  vertex 0.09607885032892227 -0.06000000238418579 0.020000001415610313
  vertex 0.06000000238418579 -0.0775880515575409 0.06000000238418579
  vertex 0.06000000238418579 -0.09607885032892227 0.020000001415610313
 endloop
endfacet
facet normal 0.5773502588272095 -0.5773502588272095 0.5773502588272095
 outer loop
  vertex 0.06000000238418579 -0.0775880515575409 0.06000000238418579
  vertex 0.0775880515575409 -0.06000000238418579 0.06000000238418579
  vertex 0.06000000238418579 -0.06000000238418579 0.0775880515575409
 endloop
endfacet
facet normal 0.4897559881210327 -0.8718594908714294 0.0
 outer loop
  vertex 0.06000000238418579 -0.09607885032892227 0.020000001415610313
  vertex 0.05301959067583084 -0.10000000894069672 0.020000001415610313
  vertex 0.05301959067583084 -0.10000000894069672 -0.020000001415610313
 endloop
endfacet
facet normal 0.4897559881210327 -0.8718594908714294 0.0
 outer loop
  vertex 0.06000000238418579 -0.09607885032892227 0.020000001415610313
  vertex 0.05301959067583084 -0.10000000894069672 -0.020000001415610313
  vertex 0.06000000238418579 -0.09607885032892227 -0.020000001415610313
 endloop
endfacet
facet normal 0.4897550344467163 0.0 -0.8718600273132324
 outer loop
  vertex 0.05301959067583084 -0.020000001415610313 -0.10000000894069672
  vertex 0.05301959067583084 0.020000001415610313 -0.10000000894069672
  vertex 0.06000000238418579 0.020000001415610313 -0.09607885032892227
 endloop
endfacet
facet normal 0.4897572994232178 0.0 -0.8718588948249817
 outer loop
  vertex 0.05301959067583084 -0.020000001415610313 -0.10000000894069672
  vertex 0.06000000238418579 0.020000001415610313 -0.09607885032892227
  vertex 0.06000000238418579 -0.020000001415610313 -0.09607885032892227
 endloop
endfacet
facet normal -0.3106970191001892 0.6721115708351135 -0.6721112132072449
 outer loop
  vertex -0.06000000238418579 0.0775880515575409 -0.06000000238418579
  vertex -0.020000001415610313 0.09607885032892227 -0.06000000238418579
  vertex -0.020000001415610313 0.06000000238418579 -0.09607885032892227
 endloop
endfacet
facet normal -0.3106967508792877 0.6721113324165344 -0.672111451625824
 outer loop
  vertex -0.06000000238418579 0.0775880515575409 -0.06000000238418579
  vertex -0.020000001415610313 0.06000000238418579 -0.09607885032892227
  vertex -0.06000000238418579 0.06000000238418579 -0.0775880515575409
 endloop
endfacet
facet normal 0.4398380219936371 0.43983888626098633 -0.7829968929290771
 outer loop
  vertex 0.06000000238418579 0.020000001415610313 -0.09607885032892227
  vertex 0.05301959067583084 0.020000001415610313 -0.10000000894069672
  vertex 0.020000001415610313 0.05301959067583084 -0.10000000894069672
 endloop
endfacet
facet normal 0.439839631319046 0.4398382902145386 -0.7829964756965637
 outer loop
  vertex 0.06000000238418579 0.020000001415610313 -0.09607885032892227
  vertex 0.020000001415610313 0.05301959067583084 -0.10000000894069672
  vertex 0.020000001415610313 0.06000000238418579 -0.09607885032892227
 endloop
endfacet
facet normal 0.38692334294319153 0.3869231343269348 -0.8370070457458496
 outer loop
  vertex 0.06000000238418579 0.06000000238418579 -0.0775880515575409
  vertex 0.06000000238418579 0.020000001415610313 -0.09607885032892227
  vertex 0.020000001415610313 0.06000000238418579 -0.09607885032892227
 endloop
endfacet
facet normal -0.4398377537727356 0.439838707447052 -0.7829972505569458
 outer loop
  vertex -0.020000001415610313 0.06000000238418579 -0.09607885032892227
  vertex -0.020000001415610313 0.05301959067583084 -0.10000000894069672
  vertex -0.05301959067583084 0.020000001415610313 -0.10000000894069672
 endloop
endfacet
facet normal -0.43983978033065796 0.4398384094238281 -0.7829962968826294
 outer loop
  vertex -0.020000001415610313 0.06000000238418579 -0.09607885032892227
  vertex -0.05301959067583084 0.020000001415610313 -0.10000000894069672
  vertex -0.06000000238418579 0.020000001415610313 -0.09607885032892227
 endloop
endfacet
facet normal -0.38692334294319153 0.3869231343269348 -0.8370070457458496
 outer loop
  vertex -0.06000000238418579 0.06000000238418579 -0.0775880515575409
  vertex -0.020000001415610313 0.06000000238418579 -0.09607885032892227
  vertex -0.06000000238418579 0.020000001415610313 -0.09607885032892227
 endloop
endfacet
facet normal -0.3126751482486725 0.3126751482486725 -0.8969216346740723
 outer loop
  vertex -0.05301959067583084 0.020000001415610313 -0.10000000894069672
  vertex -0.020000001415610313 0.05301959067583084 -0.10000000894069672
  vertex -0.020000001415610313 0.020000001415610313 -0.11151093989610672
 endloop
endfacet
facet normal 0.3291803300380707 0.0 -0.9442670941352844
 outer loop
  vertex 0.020000001415610313 0.020000001415610313 -0.11151093989610672
  vertex 0.05301959067583084 0.020000001415610313 -0.10000000894069672
  vertex 0.05301959067583084 -0.020000001415610313 -0.10000000894069672
 endloop
endfacet
facet normal 0.32917970418930054 0.0 -0.9442672729492188
 outer loop
  vertex 0.020000001415610313 0.020000001415610313 -0.11151093989610672
  vertex 0.05301959067583084 -0.020000001415610313 -0.10000000894069672
  vertex 0.020000001415610313 -0.020000001415610313 -0.11151093989610672
 endloop
endfacet
facet normal -0.3291803300380707 0.0 -0.9442670941352844
 outer loop
  vertex -0.05301959067583084 -0.020000001415610313 -0.10000000894069672
  vertex -0.05301959067583084 0.020000001415610313 -0.10000000894069672
  vertex -0.020000001415610313 0.020000001415610313 -0.11151093989610672
 endloop
endfacet
facet normal -0.32917970418930054 0.0 -0.9442672729492188
 outer loop
  vertex -0.05301959067583084 -0.020000001415610313 -0.10000000894069672
  vertex -0.020000001415610313 0.020000001415610313 -0.11151093989610672
  vertex -0.020000001415610313 -0.020000001415610313 -0.11151093989610672
 endloop
endfacet
facet normal 0.3126751482486725 -0.3126751482486725 -0.8969216346740723
 outer loop
  vertex 0.05301959067583084 -0.020000001415610313 -0.10000000894069672
  vertex 0.020000001415610313 -0.05301959067583084 -0.10000000894069672
  vertex 0.020000001415610313 -0.020000001415610313 -0.11151093989610672
 endloop
endfacet
facet normal -0.3126751482486725 -0.3126751482486725 -0.8969216346740723
 outer loop
  vertex -0.020000001415610313 -0.05301959067583084 -0.10000000894069672
  vertex -0.05301959067583084 -0.020000001415610313 -0.10000000894069672
  vertex -0.020000001415610313 -0.020000001415610313 -0.11151093989610672
 endloop
endfacet
facet normal 0.4542514681816101 -0.3738148510456085 -0.8086519241333008
 outer loop
  vertex 0.05301959067583084 -0.020000001415610313 -0.10000000894069672
  vertex 0.06000000238418579 -0.020000001415610313 -0.09607885032892227
  vertex 0.06000000238418579 -0.06000000238418579 -0.0775880515575409
 endloop
endfacet
facet normal 0.38472622632980347 -0.3991725444793701 -0.8322542309761047
 outer loop
  vertex 0.05301959067583084 -0.020000001415610313 -0.10000000894069672
  vertex 0.06000000238418579 -0.06000000238418579 -0.0775880515575409
  vertex 0.020000001415610313 -0.06000000238418579 -0.09607885032892227
 endloop
endfacet
facet normal 0.43983903527259827 -0.43983837962150574 -0.7829967141151428
 outer loop
  vertex 0.020000001415610313 -0.05301959067583084 -0.10000000894069672
  vertex 0.05301959067583084 -0.020000001415610313 -0.10000000894069672
  vertex 0.020000001415610313 -0.06000000238418579 -0.09607885032892227
 endloop
endfacet
facet normal -0.4398377537727356 -0.439838707447052 -0.7829972505569458
 outer loop
  vertex -0.05301959067583084 -0.020000001415610313 -0.10000000894069672
  vertex -0.020000001415610313 -0.05301959067583084 -0.10000000894069672
  vertex -0.020000001415610313 -0.06000000238418579 -0.09607885032892227
 endloop
endfacet
facet normal -0.38472622632980347 -0.3991725444793701 -0.8322542309761047
 outer loop
  vertex -0.05301959067583084 -0.020000001415610313 -0.10000000894069672
  vertex -0.020000001415610313 -0.06000000238418579 -0.09607885032892227
  vertex -0.06000000238418579 -0.06000000238418579 -0.0775880515575409
 endloop
endfacet
facet normal -0.4542514681816101 -0.3738148510456085 -0.8086519241333008
 outer loop
  vertex -0.06000000238418579 -0.020000001415610313 -0.09607885032892227
  vertex -0.05301959067583084 -0.020000001415610313 -0.10000000894069672
  vertex -0.06000000238418579 -0.06000000238418579 -0.0775880515575409
 endloop
endfacet
facet normal -0.3106970191001892 -0.6721115708351135 -0.6721112132072449
 outer loop
  vertex -0.020000001415610313 -0.06000000238418579 -0.09607885032892227
  vertex -0.020000001415610313 -0.09607885032892227 -0.06000000238418579
  vertex -0.06000000238418579 -0.0775880515575409 -0.06000000238418579
 endloop
endfacet
facet normal -0.3106967508792877 -0.6721113324165344 -0.672111451625824
 outer loop
  vertex -0.020000001415610313 -0.06000000238418579 -0.09607885032892227
  vertex -0.06000000238418579 -0.0775880515575409 -0.06000000238418579
  vertex -0.06000000238418579 -0.06000000238418579 -0.0775880515575409
 endloop
endfacet
facet normal 0.45425015687942505 -0.8086522221565247 -0.3738158643245697
 outer loop
  vertex 0.06000000238418579 -0.0775880515575409 -0.06000000238418579
  vertex 0.06000000238418579 -0.09607885032892227 -0.020000001415610313
  vertex 0.05301959067583084 -0.10000000894069672 -0.020000001415610313
 endloop
endfacet
facet normal 0.39546579122543335 -0.8289834856987 -0.3954657316207886
 outer loop
  vertex 0.06000000238418579 -0.0775880515575409 -0.06000000238418579
  vertex 0.05301959067583084 -0.10000000894069672 -0.020000001415610313
  vertex 0.020000001415610313 -0.10000000894069672 -0.05301959067583084
 endloop
endfacet
facet normal 0.3738148510456085 -0.8086519241333008 -0.4542514681816101
 outer loop
  vertex 0.020000001415610313 -0.09607885032892227 -0.06000000238418579
  vertex 0.06000000238418579 -0.0775880515575409 -0.06000000238418579
  vertex 0.020000001415610313 -0.10000000894069672 -0.05301959067583084
 endloop
endfacet
facet normal -0.439838707447052 -0.7829972505569458 -0.4398377537727356
 outer loop
  vertex -0.020000001415610313 -0.10000000894069672 -0.05301959067583084
  vertex -0.05301959067583084 -0.10000000894069672 -0.020000001415610313
  vertex -0.06000000238418579 -0.09607885032892227 -0.020000001415610313
 endloop
endfacet
facet normal -0.39917248487472534 -0.8322541117668152 -0.3847261965274811
 outer loop
  vertex -0.020000001415610313 -0.10000000894069672 -0.05301959067583084
  vertex -0.06000000238418579 -0.09607885032892227 -0.020000001415610313
  vertex -0.06000000238418579 -0.0775880515575409 -0.06000000238418579
 endloop
endfacet
facet normal -0.3738148510456085 -0.8086519241333008 -0.4542514681816101
 outer loop
  vertex -0.020000001415610313 -0.09607885032892227 -0.06000000238418579
  vertex -0.020000001415610313 -0.10000000894069672 -0.05301959067583084
  vertex -0.06000000238418579 -0.0775880515575409 -0.06000000238418579
 endloop
endfacet
facet normal 0.3126751482486725 -0.8969216346740723 -0.3126751482486725
 outer loop
  vertex 0.05301959067583084 -0.10000000894069672 -0.020000001415610313
  vertex 0.020000001415610313 -0.11151093989610672 -0.020000001415610313
  vertex 0.020000001415610313 -0.10000000894069672 -0.05301959067583084
 endloop
endfacet
facet normal -0.3126751482486725 -0.8969216346740723 -0.3126751482486725
 outer loop
  vertex -0.020000001415610313 -0.11151093989610672 -0.020000001415610313
  vertex -0.05301959067583084 -0.10000000894069672 -0.020000001415610313
  vertex -0.020000001415610313 -0.10000000894069672 -0.05301959067583084
 endloop
endfacet
facet normal 0.32918018102645874 -0.9442670941352844 0.0
 outer loop
  vertex 0.05301959067583084 -0.10000000894069672 -0.020000001415610313
  vertex 0.05301959067583084 -0.10000000894069672 0.020000001415610313
  vertex 0.020000001415610313 -0.11151093989610672 0.020000001415610313
 endloop
endfacet
facet normal 0.3291800916194916 -0.9442670941352844 0.0
 outer loop
  vertex 0.05301959067583084 -0.10000000894069672 -0.020000001415610313
  vertex 0.020000001415610313 -0.11151093989610672 0.020000001415610313
  vertex 0.020000001415610313 -0.11151093989610672 -0.020000001415610313
 endloop
endfacet
facet normal -0.32918018102645874 -0.9442670941352844 0.0
 outer loop
  vertex -0.020000001415610313 -0.11151093989610672 0.020000001415610313
  vertex -0.05301959067583084 -0.10000000894069672 0.020000001415610313
  vertex -0.05301959067583084 -0.10000000894069672 -0.020000001415610313
 endloop
endfacet
facet normal -0.3291800916194916 -0.9442670941352844 0.0
 outer loop
  vertex -0.020000001415610313 -0.11151093989610672 0.020000001415610313
  vertex -0.05301959067583084 -0.10000000894069672 -0.020000001415610313
  vertex -0.020000001415610313 -0.11151093989610672 -0.020000001415610313
 endloop
endfacet
facet normal -0.3126751482486725 -0.8969216346740723 0.3126751482486725
 outer loop
  vertex -0.05301959067583084 -0.10000000894069672 0.020000001415610313
  vertex -0.020000001415610313 -0.11151093989610672 0.020000001415610313
  vertex -0.020000001415610313 -0.10000000894069672 0.05301959067583084
 endloop
endfacet
facet normal 0.3869231343269348 -0.8370070457458496 0.38692334294319153
 outer loop
  vertex 0.06000000238418579 -0.09607885032892227 0.020000001415610313
  vertex 0.06000000238418579 -0.0775880515575409 0.06000000238418579
  vertex 0.020000001415610313 -0.09607885032892227 0.06000000238418579
 endloop
endfacet
facet normal 0.4398384094238281 -0.7829962968826294 0.43983978033065796
 outer loop
  vertex 0.06000000238418579 -0.09607885032892227 0.020000001415610313
  vertex 0.020000001415610313 -0.09607885032892227 0.06000000238418579
  vertex 0.020000001415610313 -0.10000000894069672 0.05301959067583084
 endloop
endfacet
facet normal 0.43983837962150574 -0.7829967141151428 0.43983903527259827
 outer loop
  vertex 0.05301959067583084 -0.10000000894069672 0.020000001415610313
  vertex 0.06000000238418579 -0.09607885032892227 0.020000001415610313
  vertex 0.020000001415610313 -0.10000000894069672 0.05301959067583084
 endloop
endfacet
facet normal -0.3738148510456085 -0.8086519241333008 0.4542514681816101
 outer loop
  vertex -0.020000001415610313 -0.10000000894069672 0.05301959067583084
  vertex -0.020000001415610313 -0.09607885032892227 0.06000000238418579
  vertex -0.06000000238418579 -0.0775880515575409 0.06000000238418579
 endloop
endfacet
facet normal -0.39917248487472534 -0.8322541117668152 0.3847261965274811
 outer loop
  vertex -0.020000001415610313 -0.10000000894069672 0.05301959067583084
  vertex -0.06000000238418579 -0.0775880515575409 0.06000000238418579
  vertex -0.06000000238418579 -0.09607885032892227 0.020000001415610313
 endloop
endfacet
facet normal -0.43983837962150574 -0.7829967141151428 0.43983903527259827
 outer loop
  vertex -0.05301959067583084 -0.10000000894069672 0.020000001415610313
  vertex -0.020000001415610313 -0.10000000894069672 0.05301959067583084
  vertex -0.06000000238418579 -0.09607885032892227 0.020000001415610313
 endloop
endfacet
facet normal 0.31069713830947876 -0.6721112728118896 0.6721112728118896
 outer loop
  vertex 0.020000001415610313 -0.09607885032892227 0.06000000238418579
  vertex 0.06000000238418579 -0.0775880515575409 0.06000000238418579
  vertex 0.06000000238418579 -0.06000000238418579 0.0775880515575409
 endloop
endfacet
facet normal 0.3106968402862549 -0.6721115708351135 0.6721112132072449
 outer loop
  vertex 0.020000001415610313 -0.09607885032892227 0.06000000238418579
  vertex 0.06000000238418579 -0.06000000238418579 0.0775880515575409
  vertex 0.020000001415610313 -0.06000000238418579 0.09607885032892227
 endloop
endfacet
facet normal -0.3106970191001892 -0.6721115708351135 0.6721112132072449
 outer loop
  vertex -0.06000000238418579 -0.0775880515575409 0.06000000238418579
  vertex -0.020000001415610313 -0.09607885032892227 0.06000000238418579
  vertex -0.020000001415610313 -0.06000000238418579 0.09607885032892227
 endloop
endfacet
facet normal -0.3106967508792877 -0.6721113324165344 0.672111451625824
 outer loop
  vertex -0.06000000238418579 -0.0775880515575409 0.06000000238418579
  vertex -0.020000001415610313 -0.06000000238418579 0.09607885032892227
  vertex -0.06000000238418579 -0.06000000238418579 0.0775880515575409
 endloop
endfacet
facet normal -0.3126751482486725 -0.3126751482486725 0.8969216346740723
 outer loop
  vertex -0.05301959067583084 -0.020000001415610313 0.10000000894069672
  vertex -0.020000001415610313 -0.05301959067583084 0.10000000894069672
  vertex -0.020000001415610313 -0.020000001415610313 0.11151093989610672
 endloop
endfacet
facet normal 0.0 0.0 1.0
 outer loop
  vertex 0.020000001415610313 -0.020000001415610313 0.11151093989610672
  vertex 0.020000001415610313 0.020000001415610313 0.11151093989610672
  vertex -0.020000001415610313 0.020000001415610313 0.11151093989610672
 endloop
endfacet
facet normal 0.0 0.0 1.0
 outer loop
  vertex 0.020000001415610313 -0.020000001415610313 0.11151093989610672
  vertex -0.020000001415610313 0.020000001415610313 0.11151093989610672
  vertex -0.020000001415610313 -0.020000001415610313 0.11151093989610672
 endloop
endfacet
facet normal 0.4542514681816101 0.3738148510456085 0.8086519241333008
 outer loop
  vertex 0.05301959067583084 0.020000001415610313 0.10000000894069672
  vertex 0.06000000238418579 0.020000001415610313 0.09607885032892227
  vertex 0.06000000238418579 0.06000000238418579 0.0775880515575409
 endloop
endfacet
facet normal 0.38472622632980347 0.3991725444793701 0.8322542309761047
 outer loop
  vertex 0.05301959067583084 0.020000001415610313 0.10000000894069672
  vertex 0.06000000238418579 0.06000000238418579 0.0775880515575409
  vertex 0.020000001415610313 0.06000000238418579 0.09607885032892227
 endloop
endfacet
facet normal 0.43983903527259827 0.43983837962150574 0.7829967141151428
 outer loop
  vertex 0.020000001415610313 0.05301959067583084 0.10000000894069672
  vertex 0.05301959067583084 0.020000001415610313 0.10000000894069672
  vertex 0.020000001415610313 0.06000000238418579 0.09607885032892227
 endloop
endfacet
facet normal 0.8718588948249817 -0.4897572994232178 0.0
 outer loop
  vertex 0.10000000894069672 -0.05301959067583084 0.020000001415610313
  vertex 0.09607885032892227 -0.06000000238418579 0.020000001415610313
  vertex 0.09607885032892227 -0.06000000238418579 -0.020000001415610313
 endloop
endfacet
facet normal 0.8718600273132324 -0.4897550344467163 0.0
 outer loop
  vertex 0.10000000894069672 -0.05301959067583084 0.020000001415610313
  vertex 0.09607885032892227 -0.06000000238418579 -0.020000001415610313
  vertex 0.10000000894069672 -0.05301959067583084 -0.020000001415610313
 endloop
endfacet
facet normal 0.8718594908714294 0.0 -0.4897559881210327
 outer loop
  vertex 0.09607885032892227 -0.020000001415610313 -0.06000000238418579
  vertex 0.09607885032892227 0.020000001415610313 -0.06000000238418579
  vertex 0.10000000894069672 0.020000001415610313 -0.05301959067583084
 endloop
endfacet
facet normal 0.8718594908714294 0.0 -0.4897559881210327
 outer loop
  vertex 0.09607885032892227 -0.020000001415610313 -0.06000000238418579
  vertex 0.10000000894069672 0.020000001415610313 -0.05301959067583084
  vertex 0.10000000894069672 -0.020000001415610313 -0.05301959067583084
 endloop
endfacet
facet normal 1.0 0.0 0.0
 outer loop
  vertex 0.11151093989610672 0.020000001415610313 -0.020000001415610313
  vertex 0.11151093989610672 0.020000001415610313 0.020000001415610313
  vertex 0.11151093989610672 -0.020000001415610313 0.020000001415610313
 endloop
endfacet
facet normal 1.0 0.0 0.0
 outer loop
  vertex 0.11151093989610672 0.020000001415610313 -0.020000001415610313
  vertex 0.11151093989610672 -0.020000001415610313 0.020000001415610313
  vertex 0.11151093989610672 -0.020000001415610313 -0.020000001415610313
 endloop
endfacet
facet normal 0.4897559881210327 0.8718594908714294 0.0
 outer loop
  vertex 0.05301959067583084 0.10000000894069672 -0.020000001415610313
  vertex 0.05301959067583084 0.10000000894069672 0.020000001415610313
  vertex 0.06000000238418579 0.09607885032892227 0.020000001415610313
 endloop
endfacet
facet normal 0.4897559881210327 0.8718594908714294 0.0
 outer loop
  vertex 0.05301959067583084 0.10000000894069672 -0.020000001415610313
  vertex 0.06000000238418579 0.09607885032892227 0.020000001415610313
  vertex 0.06000000238418579 0.09607885032892227 -0.020000001415610313
 endloop
endfacet
facet normal 0.8370070457458496 0.38692334294319153 0.3869231343269348
 outer loop
  vertex 0.09607885032892227 0.06000000238418579 0.020000001415610313
  vertex 0.0775880515575409 0.06000000238418579 0.06000000238418579
  vertex 0.09607885032892227 0.020000001415610313 0.06000000238418579
 endloop
endfacet
facet normal 0.7829964756965637 0.439839631319046 0.4398382902145386
 outer loop
  vertex 0.09607885032892227 0.06000000238418579 0.020000001415610313
  vertex 0.09607885032892227 0.020000001415610313 0.06000000238418579
  vertex 0.10000000894069672 0.020000001415610313 0.05301959067583084
 endloop
endfacet
facet normal 0.7829968929290771 0.4398380219936371 0.43983888626098633
 outer loop
  vertex 0.10000000894069672 0.05301959067583084 0.020000001415610313
  vertex 0.09607885032892227 0.06000000238418579 0.020000001415610313
  vertex 0.10000000894069672 0.020000001415610313 0.05301959067583084
 endloop
endfacet
facet normal 0.45425015687942505 0.8086522221565247 0.3738158643245697
 outer loop
  vertex 0.06000000238418579 0.0775880515575409 0.06000000238418579
  vertex 0.06000000238418579 0.09607885032892227 0.020000001415610313
  vertex 0.05301959067583084 0.10000000894069672 0.020000001415610313
 endloop
endfacet
facet normal 0.39546579122543335 0.8289834856987 0.3954657316207886
 outer loop
  vertex 0.06000000238418579 0.0775880515575409 0.06000000238418579
  vertex 0.05301959067583084 0.10000000894069672 0.020000001415610313
  vertex 0.020000001415610313 0.10000000894069672 0.05301959067583084
 endloop
endfacet
facet normal 0.3738148510456085 0.8086519241333008 0.4542514681816101
 outer loop
  vertex 0.020000001415610313 0.09607885032892227 0.06000000238418579
  vertex 0.06000000238418579 0.0775880515575409 0.06000000238418579
  vertex 0.020000001415610313 0.10000000894069672 0.05301959067583084
 endloop
endfacet
facet normal 0.6721115708351135 0.6721112132072449 -0.3106970191001892
 outer loop
  vertex 0.06000000238418579 0.09607885032892227 -0.020000001415610313
  vertex 0.09607885032892227 0.06000000238418579 -0.020000001415610313
  vertex 0.0775880515575409 0.06000000238418579 -0.06000000238418579
 endloop
endfacet
facet normal 0.6721113324165344 0.672111451625824 -0.3106967508792877
 outer loop
  vertex 0.06000000238418579 0.09607885032892227 -0.020000001415610313
  vertex 0.0775880515575409 0.06000000238418579 -0.06000000238418579
  vertex 0.06000000238418579 0.0775880515575409 -0.06000000238418579
 endloop
endfacet
facet normal 0.672111451625824 0.3106967508792877 0.6721113324165344
 outer loop
  vertex 0.09607885032892227 0.020000001415610313 0.06000000238418579
  vertex 0.0775880515575409 0.06000000238418579 0.06000000238418579
  vertex 0.06000000238418579 0.06000000238418579 0.0775880515575409
 endloop
endfacet
facet normal 0.6721112132072449 0.3106970191001892 0.6721115708351135
 outer loop
  vertex 0.09607885032892227 0.020000001415610313 0.06000000238418579
  vertex 0.06000000238418579 0.06000000238418579 0.0775880515575409
  vertex 0.06000000238418579 0.020000001415610313 0.09607885032892227
 endloop
endfacet
facet normal 0.8969216346740723 0.3126751482486725 0.3126751482486725
 outer loop
  vertex 0.11151093989610672 0.020000001415610313 0.020000001415610313
  vertex 0.10000000894069672 0.05301959067583084 0.020000001415610313
  vertex 0.10000000894069672 0.020000001415610313 0.05301959067583084
 endloop
endfacet
facet normal 0.8086519241333008 0.4542514681816101 -0.3738148510456085
 outer loop
  vertex 0.0775880515575409 0.06000000238418579 -0.06000000238418579
  vertex 0.09607885032892227 0.06000000238418579 -0.020000001415610313
  vertex 0.10000000894069672 0.05301959067583084 -0.020000001415610313
 endloop
endfacet
facet normal 0.8289834856987 0.3954657316207886 -0.39546579122543335
 outer loop
  vertex 0.0775880515575409 0.06000000238418579 -0.06000000238418579
  vertex 0.10000000894069672 0.05301959067583084 -0.020000001415610313
  vertex 0.10000000894069672 0.020000001415610313 -0.05301959067583084
 endloop
endfacet
facet normal 0.8086522817611694 0.3738158941268921 -0.45425015687942505
 outer loop
  vertex 0.09607885032892227 0.020000001415610313 -0.06000000238418579
  vertex 0.0775880515575409 0.06000000238418579 -0.06000000238418579
  vertex 0.10000000894069672 0.020000001415610313 -0.05301959067583084
 endloop
endfacet
facet normal 0.6721112132072449 -0.3106968402862549 0.6721115112304688
 outer loop
  vertex 0.0775880515575409 -0.06000000238418579 0.06000000238418579
  vertex 0.09607885032892227 -0.020000001415610313 0.06000000238418579
  vertex 0.06000000238418579 -0.020000001415610313 0.09607885032892227
 endloop
endfacet
facet normal 0.6721112728118896 -0.31069713830947876 0.6721112728118896
 outer loop
  vertex 0.0775880515575409 -0.06000000238418579 0.06000000238418579
  vertex 0.06000000238418579 -0.020000001415610313 0.09607885032892227
  vertex 0.06000000238418579 -0.06000000238418579 0.0775880515575409
 endloop
endfacet
facet normal 0.8086519241333008 -0.4542514681816101 0.3738148510456085
 outer loop
  vertex 0.0775880515575409 -0.06000000238418579 0.06000000238418579
  vertex 0.09607885032892227 -0.06000000238418579 0.020000001415610313
  vertex 0.10000000894069672 -0.05301959067583084 0.020000001415610313
 endloop
endfacet
facet normal 0.8289834856987 -0.3954657316207886 0.39546579122543335
 outer loop
  vertex 0.0775880515575409 -0.06000000238418579 0.06000000238418579
  vertex 0.10000000894069672 -0.05301959067583084 0.020000001415610313
  vertex 0.10000000894069672 -0.020000001415610313 0.05301959067583084
 endloop
endfacet
facet normal 0.8086522817611694 -0.3738158941268921 0.45425015687942505
 outer loop
  vertex 0.09607885032892227 -0.020000001415610313 0.06000000238418579
  vertex 0.0775880515575409 -0.06000000238418579 0.06000000238418579
  vertex 0.10000000894069672 -0.020000001415610313 0.05301959067583084
 endloop
endfacet
facet normal 0.8370070457458496 -0.38692334294319153 -0.3869231343269348
 outer loop
  vertex 0.09607885032892227 -0.06000000238418579 -0.020000001415610313
  vertex 0.0775880515575409 -0.06000000238418579 -0.06000000238418579
  vertex 0.09607885032892227 -0.020000001415610313 -0.06000000238418579
 endloop
endfacet
facet normal 0.7829964756965637 -0.439839631319046 -0.4398382902145386
 outer loop
  vertex 0.09607885032892227 -0.06000000238418579 -0.020000001415610313
  vertex 0.09607885032892227 -0.020000001415610313 -0.06000000238418579
  vertex 0.10000000894069672 -0.020000001415610313 -0.05301959067583084
 endloop
endfacet
facet normal 0.7829968929290771 -0.4398380219936371 -0.43983888626098633
 outer loop
  vertex 0.10000000894069672 -0.05301959067583084 -0.020000001415610313
  vertex 0.09607885032892227 -0.06000000238418579 -0.020000001415610313
  vertex 0.10000000894069672 -0.020000001415610313 -0.05301959067583084
 endloop
endfacet
facet normal 0.31069713830947876 0.6721112728118896 0.6721112728118896
 outer loop
  vertex 0.06000000238418579 0.06000000238418579 0.0775880515575409
  vertex 0.06000000238418579 0.0775880515575409 0.06000000238418579
  vertex 0.020000001415610313 0.09607885032892227 0.06000000238418579
 endloop
endfacet
facet normal 0.3106968402862549 0.6721115112304688 0.6721112132072449
 outer loop
  vertex 0.06000000238418579 0.06000000238418579 0.0775880515575409
  vertex 0.020000001415610313 0.09607885032892227 0.06000000238418579
  vertex 0.020000001415610313 0.06000000238418579 0.09607885032892227
 endloop
endfacet
facet normal 0.3126751482486725 0.8969216346740723 0.3126751482486725
 outer loop
  vertex 0.05301959067583084 0.10000000894069672 0.020000001415610313
  vertex 0.020000001415610313 0.11151093989610672 0.020000001415610313
  vertex 0.020000001415610313 0.10000000894069672 0.05301959067583084
 endloop
endfacet
facet normal 0.3869231343269348 0.8370070457458496 -0.38692334294319153
 outer loop
  vertex 0.06000000238418579 0.09607885032892227 -0.020000001415610313
  vertex 0.06000000238418579 0.0775880515575409 -0.06000000238418579
  vertex 0.020000001415610313 0.09607885032892227 -0.06000000238418579
 endloop
endfacet
facet normal 0.4398384094238281 0.7829962968826294 -0.43983978033065796
 outer loop
  vertex 0.06000000238418579 0.09607885032892227 -0.020000001415610313
  vertex 0.020000001415610313 0.09607885032892227 -0.06000000238418579
  vertex 0.020000001415610313 0.10000000894069672 -0.05301959067583084
 endloop
endfacet
facet normal 0.43983837962150574 0.7829967141151428 -0.43983903527259827
 outer loop
  vertex 0.05301959067583084 0.10000000894069672 -0.020000001415610313
  vertex 0.06000000238418579 0.09607885032892227 -0.020000001415610313
  vertex 0.020000001415610313 0.10000000894069672 -0.05301959067583084
 endloop
endfacet
facet normal 0.3126751482486725 0.3126751482486725 0.8969216346740723
 outer loop
  vertex 0.05301959067583084 0.020000001415610313 0.10000000894069672
  vertex 0.020000001415610313 0.05301959067583084 0.10000000894069672
  vertex 0.020000001415610313 0.020000001415610313 0.11151093989610672
 endloop
endfacet
facet normal 0.3126751482486725 0.3126751482486725 -0.8969216346740723
 outer loop
  vertex 0.020000001415610313 0.05301959067583084 -0.10000000894069672
  vertex 0.05301959067583084 0.020000001415610313 -0.10000000894069672
  vertex 0.020000001415610313 0.020000001415610313 -0.11151093989610672
 endloop
endfacet
facet normal 0.4398380219936371 -0.43983888626098633 0.7829968929290771
 outer loop
  vertex 0.06000000238418579 -0.020000001415610313 0.09607885032892227
  vertex 0.05301959067583084 -0.020000001415610313 0.10000000894069672
  vertex 0.020000001415610313 -0.05301959067583084 0.10000000894069672
 endloop
endfacet
facet normal 0.439839631319046 -0.4398382902145386 0.7829964756965637
 outer loop
  vertex 0.06000000238418579 -0.020000001415610313 0.09607885032892227
  vertex 0.020000001415610313 -0.05301959067583084 0.10000000894069672
  vertex 0.020000001415610313 -0.06000000238418579 0.09607885032892227
 endloop
endfacet
facet normal 0.38692334294319153 -0.3869231343269348 0.8370070457458496
 outer loop
  vertex 0.06000000238418579 -0.06000000238418579 0.0775880515575409
  vertex 0.06000000238418579 -0.020000001415610313 0.09607885032892227
  vertex 0.020000001415610313 -0.06000000238418579 0.09607885032892227
 endloop
endfacet
facet normal 0.3126751482486725 -0.8969216346740723 0.3126751482486725
 outer loop
  vertex 0.020000001415610313 -0.11151093989610672 0.020000001415610313
  vertex 0.05301959067583084 -0.10000000894069672 0.020000001415610313
  vertex 0.020000001415610313 -0.10000000894069672 0.05301959067583084
 endloop
endfacet
facet normal 0.31069713830947876 -0.6721112728118896 -0.6721112728118896
 outer loop
  vertex 0.06000000238418579 -0.06000000238418579 -0.0775880515575409
  vertex 0.06000000238418579 -0.0775880515575409 -0.06000000238418579
  vertex 0.020000001415610313 -0.09607885032892227 -0.06000000238418579
 endloop
endfacet
facet normal 0.3106968402862549 -0.6721115112304688 -0.6721112132072449
 outer loop
  vertex 0.06000000238418579 -0.06000000238418579 -0.0775880515575409
  vertex 0.020000001415610313 -0.09607885032892227 -0.06000000238418579
  vertex 0.020000001415610313 -0.06000000238418579 -0.09607885032892227
 endloop
endfacet
facet normal -0.3106970191001892 0.6721115708351135 0.6721112132072449
 outer loop
  vertex -0.020000001415610313 0.06000000238418579 0.09607885032892227
  vertex -0.020000001415610313 0.09607885032892227 0.06000000238418579
  vertex -0.06000000238418579 0.0775880515575409 0.06000000238418579
 endloop
endfacet
facet normal -0.3106967508792877 0.6721113324165344 0.672111451625824
 outer loop
  vertex -0.020000001415610313 0.06000000238418579 0.09607885032892227
  vertex -0.06000000238418579 0.0775880515575409 0.06000000238418579
  vertex -0.06000000238418579 0.06000000238418579 0.0775880515575409
 endloop
endfacet
facet normal -0.43983888626098633 0.7829968929290771 0.4398380219936371
 outer loop
  vertex -0.020000001415610313 0.09607885032892227 0.06000000238418579
  vertex -0.020000001415610313 0.10000000894069672 0.05301959067583084
  vertex -0.05301959067583084 0.10000000894069672 0.020000001415610313
 endloop
endfacet
facet normal -0.4398382902145386 0.7829964756965637 0.439839631319046
 outer loop
  vertex -0.020000001415610313 0.09607885032892227 0.06000000238418579
  vertex -0.05301959067583084 0.10000000894069672 0.020000001415610313
  vertex -0.06000000238418579 0.09607885032892227 0.020000001415610313
 endloop
endfacet
facet normal -0.3869231343269348 0.8370070457458496 0.38692334294319153
 outer loop
  vertex -0.06000000238418579 0.0775880515575409 0.06000000238418579
  vertex -0.020000001415610313 0.09607885032892227 0.06000000238418579
  vertex -0.06000000238418579 0.09607885032892227 0.020000001415610313
 endloop
endfacet
facet normal -0.43983879685401917 0.7829970717430115 -0.43983790278434753
 outer loop
  vertex -0.05301959067583084 0.10000000894069672 -0.020000001415610313
  vertex -0.020000001415610313 0.10000000894069672 -0.05301959067583084
  vertex -0.020000001415610313 0.09607885032892227 -0.06000000238418579
 endloop
endfacet
facet normal -0.38472601771354675 0.8322541117668152 -0.3991727828979492
 outer loop
  vertex -0.05301959067583084 0.10000000894069672 -0.020000001415610313
  vertex -0.020000001415610313 0.09607885032892227 -0.06000000238418579
  vertex -0.06000000238418579 0.0775880515575409 -0.06000000238418579
 endloop
endfacet
facet normal -0.45425015687942505 0.8086522817611694 -0.3738158941268921
 outer loop
  vertex -0.06000000238418579 0.09607885032892227 -0.020000001415610313
  vertex -0.05301959067583084 0.10000000894069672 -0.020000001415610313
  vertex -0.06000000238418579 0.0775880515575409 -0.06000000238418579
 endloop
endfacet
facet normal -0.3738158643245697 0.45425012707710266 0.8086522221565247
 outer loop
  vertex -0.020000001415610313 0.05301959067583084 0.10000000894069672
  vertex -0.020000001415610313 0.06000000238418579 0.09607885032892227
  vertex -0.06000000238418579 0.06000000238418579 0.0775880515575409
 endloop
endfacet
facet normal -0.3991727828979492 0.38472601771354675 0.8322541117668152
 outer loop
  vertex -0.020000001415610313 0.05301959067583084 0.10000000894069672
  vertex -0.06000000238418579 0.06000000238418579 0.0775880515575409
  vertex -0.06000000238418579 0.020000001415610313 0.09607885032892227
 endloop
endfacet
facet normal -0.4398380219936371 0.43983888626098633 0.7829968929290771
 outer loop
  vertex -0.05301959067583084 0.020000001415610313 0.10000000894069672
  vertex -0.020000001415610313 0.05301959067583084 0.10000000894069672
  vertex -0.06000000238418579 0.020000001415610313 0.09607885032892227
 endloop
endfacet
facet normal -0.8969216346740723 0.3126751482486725 0.3126751482486725
 outer loop
  vertex -0.10000000894069672 0.05301959067583084 0.020000001415610313
  vertex -0.11151093989610672 0.020000001415610313 0.020000001415610313
  vertex -0.10000000894069672 0.020000001415610313 0.05301959067583084
 endloop
endfacet
facet normal -0.672111451625824 0.3106967508792877 -0.6721113324165344
 outer loop
  vertex -0.09607885032892227 0.020000001415610313 -0.06000000238418579
  vertex -0.0775880515575409 0.06000000238418579 -0.06000000238418579
  vertex -0.06000000238418579 0.06000000238418579 -0.0775880515575409
 endloop
endfacet
facet normal -0.6721112132072449 0.3106970191001892 -0.6721115708351135
 outer loop
  vertex -0.09607885032892227 0.020000001415610313 -0.06000000238418579
  vertex -0.06000000238418579 0.06000000238418579 -0.0775880515575409
  vertex -0.06000000238418579 0.020000001415610313 -0.09607885032892227
 endloop
endfacet
facet normal -0.43983790278434753 -0.43983879685401917 0.7829970717430115
 outer loop
  vertex -0.020000001415610313 -0.05301959067583084 0.10000000894069672
  vertex -0.05301959067583084 -0.020000001415610313 0.10000000894069672
  vertex -0.06000000238418579 -0.020000001415610313 0.09607885032892227
 endloop
endfacet
facet normal -0.3991727828979492 -0.38472601771354675 0.8322541117668152
 outer loop
  vertex -0.020000001415610313 -0.05301959067583084 0.10000000894069672
  vertex -0.06000000238418579 -0.020000001415610313 0.09607885032892227
  vertex -0.06000000238418579 -0.06000000238418579 0.0775880515575409
 endloop
endfacet
facet normal -0.3738158643245697 -0.45425012707710266 0.8086522221565247
 outer loop
  vertex -0.020000001415610313 -0.06000000238418579 0.09607885032892227
  vertex -0.020000001415610313 -0.05301959067583084 0.10000000894069672
  vertex -0.06000000238418579 -0.06000000238418579 0.0775880515575409
 endloop
endfacet
facet normal -0.6721112728118896 -0.6721112728118896 0.31069713830947876
 outer loop
  vertex -0.06000000238418579 -0.0775880515575409 0.06000000238418579
  vertex -0.0775880515575409 -0.06000000238418579 0.06000000238418579
  vertex -0.09607885032892227 -0.06000000238418579 0.020000001415610313
 endloop
endfacet
facet normal -0.6721115112304688 -0.6721112132072449 0.3106968402862549
 outer loop
  vertex -0.06000000238418579 -0.0775880515575409 0.06000000238418579
  vertex -0.09607885032892227 -0.06000000238418579 0.020000001415610313
  vertex -0.06000000238418579 -0.09607885032892227 0.020000001415610313
 endloop
endfacet
facet normal -0.5773502588272095 -0.5773502588272095 -0.5773502588272095
 outer loop
  vertex -0.06000000238418579 -0.0775880515575409 -0.06000000238418579
  vertex -0.0775880515575409 -0.06000000238418579 -0.06000000238418579
  vertex -0.06000000238418579 -0.06000000238418579 -0.0775880515575409
 endloop
endfacet
endsolid sphere
